<?xml version="1.0" encoding="UTF-8"?>
<svg width="620px" height="620px" viewBox="0 0 620 620" version="1.1" xmlns="http://www.w3.org/2000/svg" xmlns:xlink="http://www.w3.org/1999/xlink">
    <title>printNanny icon@1x</title>
    <defs>
        <polygon id="path-1" points="-0.535231822 -0.258545579 470.464768 -0.258545579 470.464768 537.741454 -0.535231822 537.741454"></polygon>
        <polygon id="path-3" points="-0.419101713 2.84217094e-14 92.5808983 2.84217094e-14 92.5808983 93 -0.419101713 93"></polygon>
    </defs>
    <g id="printNanny-icon" stroke="none" stroke-width="1" fill="none" fill-rule="evenodd">
        <g id="Group-4" transform="translate(74.535232, 60.258546)">
            <mask id="mask-2" fill="white">
                <use xlink:href="#path-1"></use>
            </mask>
            <g id="Clip-2"></g>
            <path d="M234.968019,531.741454 C262.856737,531.741454 285.464768,533.084362 285.464768,534.74097 C285.464768,536.397578 262.856737,537.741454 234.968019,537.741454 C207.073728,537.741454 184.464768,536.397578 184.464768,534.74097 C184.464768,533.084362 207.073728,531.741454 234.968019,531.741454" id="Fill-1" fill="#1C1038" mask="url(#mask-2)"></path>
            <path d="M395.748183,74.4564749 C354.60291,33.3091802 297.752647,7.85670834 234.962443,7.85670834 C172.171309,7.85670834 115.326626,33.3091802 74.1785636,74.4564749 C33.0305014,115.6047 7.57906004,172.453328 7.57906004,235.242849 C7.57906004,298.031441 33.0305014,354.879139 74.1785636,396.027364 C115.326626,437.175589 172.171309,462.62527 234.962443,462.62527 C297.752647,462.62527 354.60291,437.175589 395.748183,396.027364 C436.899035,354.879139 462.346756,298.031441 462.346756,235.242849 C462.346756,172.450538 436.899035,115.60284 395.748183,74.4564749 Z M234.962443,-0.258545579 C299.997679,-0.258545579 358.876282,26.1025445 401.487242,68.7164627 C444.103782,111.331311 470.464768,170.209217 470.464768,235.242849 C470.464768,300.273692 444.103782,359.152528 401.487242,401.766446 C358.870702,444.380364 299.993029,470.741454 234.962443,470.741454 C169.931858,470.741454 111.053254,444.380364 68.439504,401.766446 C25.8248242,359.152528 -0.535231822,300.273692 -0.535231822,235.242849 C-0.535231822,170.212007 25.8248242,111.332241 68.439504,68.7164627 C111.053254,26.1025445 169.931858,-0.258545579 234.962443,-0.258545579 L234.962443,-0.258545579 Z" id="Fill-3" fill="#1C1038" mask="url(#mask-2)"></path>
        </g>
        <path d="M203.56227,308.329665 C205.57281,309.692034 206.099159,312.431651 204.734,314.440331 C203.373491,316.452732 200.633874,316.97815 198.625193,315.616711 C191.509256,310.778209 186.695862,309.845474 183.754447,311.248761 C181.215698,312.460479 179.778934,315.745974 179.33256,319.800533 C178.803422,324.577658 179.704538,330.193595 181.831322,335.125091 C182.850541,337.488081 184.155254,339.669731 185.714771,341.471964 L178.4891,346.639667 C176.578064,344.267378 174.977629,341.5352 173.718484,338.615174 C171.015135,332.351996 169.877812,325.128186 170.554812,318.891977 C168.541482,317.226446 166.813645,315.483729 165.360141,313.686146 C161.069376,308.391971 159.101613,302.629104 159.133231,296.894135 C159.16485,291.189854 161.17818,285.613905 164.859831,280.642421 C168.151835,276.193565 172.797839,272.214332 178.543967,269.074839 C144.375009,220.767931 154.520706,184.649809 186.205782,160.859034 C215.179139,139.103907 262.642586,128.225414 309.961893,128.225414 C357.281199,128.225414 404.749296,139.103907 433.723583,160.859034 C465.40215,184.648879 475.553426,220.767931 441.384468,269.072979 C447.128736,272.214332 451.77195,276.193565 455.063955,280.642421 C458.745606,285.613905 460.759866,291.189854 460.793344,296.894135 C460.821242,302.629104 458.851619,308.391971 454.563644,313.686146 C453.112001,315.483729 451.386953,317.223656 449.372693,318.891977 C450.045973,325.128186 448.91144,332.351996 446.209951,338.615174 C445.061469,341.274816 443.629354,343.781947 441.937785,345.999865 L434.843237,340.7029 C436.126561,339.061547 437.212736,337.16167 438.092464,335.125091 C440.221107,330.193595 441.120364,324.577658 440.595875,319.800533 C440.149501,315.745974 438.712737,312.460479 436.170268,311.248761 C433.227923,309.845474 428.417319,310.778209 421.303242,315.616711 C419.288982,316.97815 416.554944,316.452732 415.189786,314.440331 C413.829276,312.431651 414.353765,309.692034 416.362446,308.329665 C426.494193,301.441564 434.338277,300.585085 439.970952,303.271695 C442.797054,304.620115 444.965685,306.793396 446.522412,309.511624 C446.950187,309.053162 447.354713,308.592839 447.728551,308.126937 C450.661596,304.505732 452.007226,300.67064 451.987697,296.928543 C451.968169,293.156687 450.560232,289.366232 447.984286,285.891959 C444.71088,281.470072 439.586885,277.583833 433.016826,274.833056 L427.792396,272.643037 L431.190414,268.116996 C465.271958,222.724535 457.019628,189.364629 428.435918,167.903365 C401.059276,147.344147 355.5794,137.066398 309.961893,137.066398 C264.343455,137.066398 218.86544,147.346007 191.487867,167.904295 C162.904157,189.366488 154.653688,222.725465 188.738021,268.116996 L192.136969,272.643037 L186.90696,274.833056 C180.336901,277.583833 175.212905,281.470072 171.94043,285.891959 C169.368203,289.366232 167.959337,293.156687 167.938878,296.928543 C167.917489,300.67064 169.263119,304.505732 172.197095,308.126937 C172.573722,308.591909 172.975458,309.055021 173.406023,309.511624 C174.9581,306.795256 177.131381,304.620115 179.957483,303.271695 C185.585508,300.585085 193.429592,301.441564 203.56227,308.329665" id="Fill-5" fill="#1C1038"></path>
        <path d="M254.029439,479.014505 C261.776808,582.838182 355.440838,582.838182 363.188208,479.014505 L254.029439,479.014505" id="Fill-6" fill="#FFFFFF"></path>
        <path d="M283.271097,552.895302 C266.018517,541.135746 252.16218,516.387773 249.357156,478.764286 L249,474 L368,474 L367.647507,478.764286 C364.838752,516.387773 350.981483,541.135746 333.730768,552.895302 C325.80247,558.296879 317.161726,561 308.500466,561 C299.839207,561 291.202193,558.296879 283.271097,552.895302 Z M259,483 C262.315733,514.832568 274.171254,535.629151 288.713565,545.47992 C295.130087,549.82664 302.074623,552 308.997664,552 C315.918836,552 322.868978,549.82664 329.284566,545.47992 C343.827812,535.629151 355.681463,514.832568 359,483 L259,483 L259,483 Z" id="Fill-7" fill="#1C1038"></path>
        <path d="M308.606963,483.433602 L243.455037,483.433602 C241.0595,483.433602 239.107546,481.528146 239.0378,479.148417 C237.956274,468.463353 238.100416,457.610898 239.342822,446.789131 C240.614056,435.71256 243.056091,424.62111 246.526645,413.741687 L253.404516,415.845221 L268.199006,418.704801 C262.156225,418.768968 257.259137,418.853593 254.134522,418.954957 C251.265643,428.440392 249.227204,438.105308 248.11778,447.790682 C247.083682,456.778597 246.848406,465.758143 247.492857,474.594478 L369.724789,474.594478 C370.364591,465.758143 370.133965,456.778597 369.099866,447.790682 C367.984863,438.105308 365.947354,428.440392 363.078474,418.954957 L371.21549,415.429536 C374.41171,425.767731 376.665896,436.284476 377.872035,446.789131 C379.12746,457.715982 379.261372,468.67445 378.146368,479.462739 C377.915742,481.733664 375.997266,483.426163 373.762609,483.424303 L373.762609,483.433602 L308.606963,483.433602" id="Fill-8" fill="#1C1038"></path>
        <path d="M391.889867,508.477561 C389.837426,501.847916 389.516182,493.671417 391.80377,483.933135 C386.726825,461.535459 382.822836,439.185364 386.362996,428.983399 C391.10481,415.301477 403.919374,417.205657 431.571318,450.535809 C439.231172,459.767491 444.3183,469.402215 447.165055,478.60031 C450.069208,487.976602 450.66263,496.938658 449.308222,504.616955 C447.88253,512.674968 444.313671,519.399775 438.992322,523.884535 C436.494584,525.989303 433.623759,527.592135 430.422433,528.597871 C425.010358,530.302397 419.005787,530.464733 413.336347,529.019571 C408.670446,527.828175 404.191552,525.535882 400.430132,522.105372 C396.665009,518.673929 393.645134,514.138789 391.889867,508.477561 Z M400.985644,484.909877 C398.831226,493.409488 398.991055,500.309358 400.680941,505.706499 C401.955834,509.787469 404.106514,513.014933 406.763786,515.414077 C409.421058,517.812288 412.632591,519.427885 416.014234,520.283257 C420.169785,521.334515 424.550592,521.220714 428.474345,519.998755 C430.565206,519.347665 432.440158,518.310399 434.073029,516.95132 C437.81639,513.827396 440.361502,508.941425 441.429832,502.953827 C442.565458,496.589379 442.038303,489.068269 439.545533,481.096619 C437.000422,472.953335 432.410248,464.36884 425.469375,456.084705 C405.00006,431.655786 396.744103,426.759555 394.990659,431.765856 C392.072613,440.097564 396.058054,461.39976 401.000599,482.849337 L401.241745,483.893133 L400.985644,484.909877 L400.985644,484.909877 Z" id="Fill-9" fill="#1C1038"></path>
        <path d="M439.788683,467.257214 C448.685464,468.651201 454.774742,476.997455 453.380755,485.897026 C451.987697,494.797527 443.644234,500.883085 434.741873,499.491888 C425.840442,498.09976 419.755814,489.753507 421.148871,480.852076 C422.542858,471.953435 430.887252,465.866017 439.788683,467.257214" id="Fill-10" fill="#7ED2EF"></path>
        <path d="M446.693881,475.924023 C444.887659,473.446679 442.133358,471.658007 438.860049,471.146422 C435.582056,470.632964 432.405241,471.497786 429.925433,473.303323 C427.446562,475.109798 425.660014,477.866358 425.146627,481.137314 C424.63324,484.418576 425.49513,487.594898 427.306974,490.074116 C429.10289,492.539279 431.843139,494.326078 435.09209,494.847032 L435.136121,494.853591 C438.418799,495.367049 441.595613,494.502228 444.074485,492.694816 C446.539303,490.897711 448.32023,488.161764 448.843922,484.909548 L448.854228,484.863636 C449.366677,481.582374 448.500103,478.406052 446.693881,475.924023 Z M440.665879,463.249305 C446.258354,464.122489 450.966597,467.187374 454.061873,471.42724 C457.063296,475.545651 458.541926,480.773714 457.818713,486.19132 L457.752465,486.664256 C456.877433,492.256683 453.815281,496.966724 449.577219,500.058293 C445.459692,503.064291 440.227903,504.540147 434.81117,503.819701 L434.34099,503.750693 C428.748515,502.878429 424.035672,499.815384 420.944076,495.573678 C417.853401,491.336573 416.373852,485.919887 417.248884,480.339422 C418.123916,474.746075 421.186987,470.036034 425.42873,466.942625 C429.665872,463.849216 435.082605,462.37428 440.665879,463.249305 L440.665879,463.249305 Z" id="Fill-11" fill="#1C1038"></path>
        <path d="M220.585837,484.248234 C228.978588,517.405412 204.787007,529.868531 187.637896,524.51577 C167.541791,518.244222 163.326352,483.928333 188.560402,453.748838 C236.701779,396.172241 230.720375,440.196753 220.585837,484.248234" id="Fill-12" fill="#D1D4E2"></path>
        <path d="M216.32254,505.706499 C218.010699,500.309358 218.172411,493.409488 216.017811,484.909877 L215.761689,483.893133 L216.000985,482.849337 C220.945816,461.39976 224.926919,440.097564 222.008628,431.765856 C220.255036,426.759555 211.998383,431.655786 191.532018,456.084705 C184.587755,464.36884 180.000934,472.953335 177.454673,481.096619 C174.961693,489.068269 174.434494,496.589379 175.570216,502.953827 C176.637701,508.941425 179.184897,513.827396 182.927638,516.95132 C184.559713,518.310399 186.435758,519.347665 188.523056,519.998755 C192.448074,521.220714 196.828315,521.334515 200.987955,520.283257 C204.369883,519.427885 207.577947,517.812288 210.234509,515.414077 C212.893874,513.014933 215.046605,509.787469 216.32254,505.706499 Z M225.19361,483.933135 C227.483074,493.671417 227.164605,501.847916 225.107513,508.477561 C223.355929,514.138789 220.336947,518.673929 216.571783,522.105372 C212.804768,525.535882 208.331379,527.828175 203.661724,529.019571 C197.995926,530.464733 191.99129,530.302397 186.576379,528.597871 C183.375018,527.592135 180.505087,525.989303 178.010099,523.884535 C172.684063,519.399775 169.118869,512.674968 167.693161,504.616955 C166.335962,496.938658 166.932167,487.976602 169.832648,478.60031 C172.684063,469.402215 177.767544,459.767491 185.428407,450.535809 C213.082503,417.205657 225.891652,415.301477 230.639072,428.983399 C234.174642,439.185364 230.275239,461.535459 225.19361,483.933135 L225.19361,483.933135 Z" id="Fill-13" fill="#1C1038"></path>
        <path d="M177.428963,467.257214 C168.530323,468.651201 162.442905,476.997455 163.835962,485.897026 C165.228089,494.797527 173.574343,500.883085 182.475773,499.491888 C191.372554,498.09976 197.461832,489.753507 196.067845,480.852076 C194.674788,471.953435 186.330394,465.866017 177.428963,467.257214" id="Fill-14" fill="#7ED2EF"></path>
        <path d="M162.942857,471.427256 C166.033484,467.187382 170.746254,464.122491 176.338644,463.249305 C181.921832,462.374279 187.333881,463.849218 191.575558,466.942632 C195.812634,470.036047 198.878419,474.746098 199.750678,480.339455 C200.625696,485.919931 199.15077,491.336627 196.060142,495.57374 C192.964914,499.815454 188.256744,502.878505 182.663435,503.750771 C177.080247,504.625796 171.663598,503.149938 167.426521,500.058363 C163.186684,496.966789 160.12458,492.256738 159.246801,486.662461 C158.377303,481.078305 159.851309,475.666209 162.942857,471.427256 Z M178.136369,471.146421 C174.86673,471.658 172.112363,473.446654 170.306098,475.923971 C168.495149,478.405974 167.633238,481.582263 168.146637,484.863491 C168.657226,488.132539 170.449438,490.888133 172.925557,492.694589 C175.405424,494.504792 178.581378,495.366794 181.864133,494.853341 C185.131899,494.340824 187.888139,492.551234 189.694404,490.073916 C191.499733,487.594724 192.367264,484.418436 191.853865,481.137208 C191.340466,477.866286 189.551065,475.112566 187.074945,473.303299 C184.595078,471.49778 181.419125,470.632968 178.136369,471.146421 L178.136369,471.146421 Z" id="Fill-15" fill="#1C1038"></path>
        <path d="M177.501261,341.540696 C180.283842,338.737326 184.126629,337 188.374845,337 C191.660747,337 194.708379,338.041837 197.205591,339.815473 L196.440912,351.868753 L199,363.680893 C196.231272,366.35671 192.483607,368 188.374845,368 C184.159876,368 180.331865,366.274778 177.544667,363.486305 L177.501261,363.442546 C174.717757,360.631728 173,356.75859 173,352.5 C173,348.375481 174.613398,344.614999 177.242674,341.828388 L177.501261,341.540696 Z M188.501365,346 C186.703774,346 185.078205,346.728997 183.904992,347.903038 L183.721137,348.075049 C182.653504,349.224517 182,350.781714 182,352.49909 C182,354.304747 182.719947,355.931112 183.886788,357.096962 L183.904992,357.110613 C185.070013,358.278283 186.694672,359 188.501365,359 C190.305328,359 191.930897,358.278283 193.096828,357.110613 L193.096828,357.096962 C194.270951,355.921101 195,354.293825 195,352.49909 C195,350.704355 194.270951,349.078899 193.096828,347.903038 C191.920885,346.728997 190.293496,346 188.501365,346 L188.501365,346 Z" id="Fill-16" fill="#1C1038"></path>
        <path d="M436.09916,347.903038 C434.922969,346.728997 433.295238,346 431.501821,346 C429.704762,346 428.07612,346.728997 426.905392,347.903038 L426.886275,347.903038 C425.720098,349.067978 425,350.695253 425,352.49909 C425,354.304747 425.720098,355.931112 426.886275,357.096962 L426.905392,357.110613 C428.067927,358.278283 429.695658,359 431.501821,359 C433.219678,359 434.777311,358.343811 435.929832,357.275343 L436.09916,357.096962 C437.27535,355.921101 438,354.293825 438,352.49909 C438,350.704355 437.27535,349.078899 436.09916,347.903038 Z M431.554005,337 C435.817913,337 439.681963,338.737326 442.473541,341.540696 C445.267904,344.344996 447,348.221858 447,352.5 C447,356.780004 445.267904,360.656866 442.473541,363.460235 L442.189652,363.721858 C439.409206,366.372537 435.663907,368 431.554005,368 C427.483069,368 423.767458,366.405124 421,363.800997 L424.285138,349.913563 L422.664371,339.824784 C425.176699,338.046492 428.245674,337 431.554005,337 L431.554005,337 Z" id="Fill-17" fill="#1C1038"></path>
        <path d="M282.377873,425.551054 C200.055448,417.656754 189.980427,372.776692 193.314279,334.407174 C194.259103,323.53426 196.304051,313.306729 198.033748,304.657313 C198.687499,301.366239 199.303123,298.300211 199.764375,295.670327 C200.151232,293.44311 202.145964,291.900332 204.349933,292.019364 L200.403247,309.768289 L203.446026,324.21033 C202.908518,327.773878 202.441686,331.44344 202.119925,335.168799 C199.221288,368.564043 207.896742,407.496178 277.580288,416.135364 C276.498763,412.814532 275.912897,409.270512 275.912897,405.588861 C275.912897,403.149616 277.89275,401.168834 280.334784,401.168834 C282.775889,401.168834 284.753882,403.149616 284.753882,405.588861 C284.753882,412.550427 287.578124,418.853593 292.139502,423.414971 C296.698091,427.97449 303.002187,430.795012 309.961893,430.795012 C316.926249,430.795012 323.227554,427.97449 327.789863,423.414971 C332.350311,418.853593 335.171764,412.550427 335.171764,405.588861 C335.171764,403.149616 337.151616,401.168834 339.593651,401.168834 C342.030106,401.168834 344.010888,403.149616 344.010888,405.588861 C344.010888,409.270512 343.429673,412.814532 342.348147,416.135364 C412.027044,407.496178 420.708077,368.564043 417.80386,335.168799 C417.385385,330.334016 416.732564,325.586648 415.978379,321.043869 L418.001008,316.293711 L422.259225,306.493954 C423.903367,314.738843 425.735359,324.296815 426.609507,334.407174 C429.945218,372.776692 419.871127,417.656754 337.551492,425.551054 C336.488565,427.012924 335.315905,428.390175 334.037231,429.66606 C327.875418,435.825083 319.363634,439.639717 309.961893,439.639717 C300.560152,439.639717 292.048368,435.825083 285.886554,429.66606 C284.61253,428.390175 283.43987,427.012924 282.377873,425.551054" id="Fill-18" fill="#1C1038"></path>
        <path d="M282.82315,277.181512 C274.677953,269.039112 263.427603,264 250.999534,264 C238.575194,264 227.321114,269.039112 219.18058,277.181512 C211.036315,285.322979 206,296.574262 206,309.000466 C206,321.426671 211.036315,332.678886 219.18058,340.821285 C227.321114,348.963685 238.575194,354 250.999534,354 C263.427603,354 274.677953,348.963685 282.82315,340.821285 C290.963685,332.678886 296,321.426671 296,309.000466 C296,296.574262 290.963685,285.322979 282.82315,277.181512 Z M250.497222,255 C265.272098,255 278.649413,260.99034 288.327684,270.670464 C298.008734,280.351513 304,293.726976 304,308.5 C304,323.271172 298.008734,336.648487 288.327684,346.330463 C278.649413,356.008734 265.272098,362 250.497222,362 C235.725124,362 222.351513,356.011512 212.669537,346.330463 C202.988488,336.648487 197,323.27395 197,308.5 C197,293.728828 202.988488,280.351513 212.669537,270.670464 C222.351513,260.99034 235.725124,255 250.497222,255 L250.497222,255 Z" id="Fill-19" fill="#1C1038"></path>
        <path d="M331.666759,270.670464 C341.350587,260.99034 354.72605,255 369.498148,255 C384.270245,255 397.648487,260.99034 407.32861,270.670464 C417.006881,280.351513 423,293.726976 423,308.5 C423,323.27395 417.006881,336.648487 407.32861,346.330463 C397.648487,356.011512 384.270245,362 369.498148,362 C354.72605,362 341.350587,356.008734 331.666759,346.330463 C321.988488,336.648487 316,323.271172 316,308.5 C316,293.726976 321.988488,280.351513 331.666759,270.670464 Z M369.000466,264 C356.575194,264 345.321114,269.039112 337.181512,277.181512 C329.036315,285.322979 324,296.574262 324,309.000466 C324,321.426671 329.036315,332.678886 337.181512,340.821285 C345.321114,348.963685 356.575194,354 369.000466,354 C381.429468,354 392.677953,348.963685 400.82315,340.821285 C408.963685,332.678886 414,321.426671 414,309.000466 C414,296.574262 408.963685,285.322979 400.82315,277.181512 C392.677953,269.039112 381.429468,264 369.000466,264 L369.000466,264 Z" id="Fill-20" fill="#1C1038"></path>
        <path d="M228.338786,265.210919 C230.031286,258.80174 230.838478,251.032982 230.571583,241.621941 C230.564144,241.449901 230.559494,241.275072 230.571583,241.099312 C230.712935,238.666577 232.801591,236.813197 235.230606,236.955479 L236.874749,237.036384 L238.517961,237.048473 C244.530983,237.048473 250.2985,236.059942 255.658702,234.23911 C259.511463,232.931608 263.161496,231.198191 266.550214,229.097446 C263.59113,226.201598 260.921259,223.012818 258.581518,219.575742 C257.221009,217.564272 257.744568,214.827444 259.756038,213.463216 C261.767508,212.099917 264.507126,212.626265 265.867635,214.637736 C268.766272,218.898742 272.272164,222.719885 276.258837,225.976552 C276.37415,226.058387 276.482953,226.147661 276.588037,226.241586 C279.215131,228.35349 282.048673,230.221749 285.052394,231.812884 C292.476142,235.743761 300.954448,237.970978 309.961893,237.970978 C318.973987,237.970978 327.452293,235.743761 334.874181,231.812884 C337.877903,230.221749 340.708654,228.35349 343.337608,226.241586 C343.443622,226.147661 343.554285,226.058387 343.664949,225.976552 C347.654411,222.719885 351.157513,218.898742 354.056151,214.637736 C355.42038,212.626265 358.156277,212.099917 360.170537,213.463216 C362.179218,214.827444 362.707426,217.564272 361.343197,219.575742 C359.007176,223.012818 356.334515,226.202528 353.373571,229.097446 C356.76694,231.198191 360.416043,232.931608 364.265084,234.23911 C369.629005,236.059942 375.396522,237.048473 381.410474,237.048473 L383.048107,237.036384 L384.692249,236.955479 C387.124054,236.813197 389.20992,238.666577 389.354992,241.099312 C389.364291,241.273212 389.364291,241.445252 389.354992,241.615432 C389.076008,251.447737 389.965036,259.488969 391.815625,266.059028 L381.953562,262.504779 C381.039426,257.558404 380.534466,252.041042 380.496339,245.882948 C373.849094,245.785304 367.441775,244.637752 361.434332,242.596523 C356.036933,240.765462 350.970594,238.203464 346.342259,235.031423 C344.006238,236.723922 341.545605,238.258331 338.983607,239.61791 C330.311873,244.209977 320.43493,246.811963 309.961893,246.811963 C299.493505,246.811963 289.616562,244.210907 280.945758,239.61791 C278.379111,238.259261 275.920337,236.723922 273.582456,235.031423 C268.957841,238.203464 263.887782,240.765462 258.494103,242.596523 C252.483871,244.637752 246.073762,245.785304 239.427447,245.882948 C239.393969,251.450527 238.978284,256.490827 238.220379,261.059645 L228.338786,265.210919" id="Fill-21" fill="#1C1038"></path>
        <path d="M309.961893,452.460864 C312.408577,452.460864 314.388429,450.478222 314.388429,448.036187 C314.388429,445.589503 312.408577,443.606861 309.961893,443.606861 C307.520788,443.606861 305.535356,445.589503 305.535356,448.036187 C305.535356,450.478222 307.520788,452.460864 309.961893,452.460864" id="Fill-22" fill="#1C1038"></path>
        <path d="M309.961893,470.167941 C312.408577,470.167941 314.388429,468.184369 314.388429,465.738615 C314.388429,463.29658 312.408577,461.313938 309.961893,461.313938 C307.520788,461.313938 305.535356,463.29658 305.535356,465.738615 C305.535356,468.184369 307.520788,470.167941 309.961893,470.167941" id="Fill-23" fill="#1C1038"></path>
        <path d="M309.961893,137.065468 C264.343455,137.065468 218.86544,147.344147 191.487867,167.903365 C162.904157,189.364629 154.650898,222.724535 188.736161,268.116066 L192.136969,272.643037 L186.90696,274.832126 C180.336901,277.582903 175.212905,281.470072 171.94043,285.891029 C169.368203,289.366232 167.959337,293.155757 167.936088,296.928543 C167.917489,300.67064 169.263119,304.505732 172.194305,308.126937 L173.403233,309.511624 C174.9581,306.793396 177.131381,304.620115 179.957483,303.270765 C184.306835,301.195129 189.978567,301.235116 197.00337,304.53642 C197.995621,291.331205 203.763138,279.454882 212.583663,270.636216 C217.433325,265.789344 223.200842,261.865907 229.605371,259.147679 C230.415353,254.052512 230.756642,248.244077 230.571583,241.621941 C230.562284,241.448972 230.559494,241.275072 230.568794,241.096522 C230.712935,238.666577 232.798801,236.812267 235.230606,236.953619 L236.874749,237.036384 L238.517961,237.047543 C244.530983,237.047543 250.297571,236.058082 255.658702,234.23818 C259.508673,232.930678 263.159636,231.196331 266.550214,229.096516 C263.58834,226.201598 260.918469,223.010958 258.581518,219.575742 C257.218219,217.564272 257.744568,214.824655 259.756038,213.462286 C261.767508,212.099917 264.505266,212.626265 265.867635,214.637736 C268.766272,218.898742 272.272164,222.719885 276.258837,225.975622 L276.586177,226.241586 C279.215131,228.35256 282.048673,230.220819 285.050534,231.812884 C292.473353,235.743761 300.951658,237.970048 309.961893,237.970048 C318.973987,237.970048 327.452293,235.743761 334.874181,231.812884 C337.877903,230.220819 340.708654,228.35256 343.337608,226.241586 L343.664949,225.975622 C347.654411,222.719885 351.157513,218.898742 354.056151,214.637736 C355.42038,212.626265 358.156277,212.099917 360.170537,213.462286 C362.179218,214.824655 362.707426,217.564272 361.343197,219.575742 C359.002527,223.010958 356.334515,226.202528 353.373571,229.096516 C356.76694,231.196331 360.416043,232.930678 364.265084,234.23818 C369.629005,236.058082 375.391872,237.047543 381.404895,237.047543 L383.048107,237.036384 L384.692249,236.953619 C387.124054,236.812267 389.20992,238.666577 389.354992,241.096522 C389.364291,241.272282 389.364291,241.445252 389.354992,241.615432 C389.168073,248.239428 389.509363,254.049722 390.321204,259.147679 C396.723874,261.865907 402.49604,265.789344 407.341052,270.636216 C416.160648,279.454882 421.928165,291.330275 422.923206,304.53642 C429.945218,301.235116 435.616951,301.195129 439.967232,303.270765 C442.793334,304.620115 444.965685,306.793396 446.522412,309.508834 L447.728551,308.126937 C450.661596,304.505732 452.007226,300.66878 451.987697,296.928543 C451.968169,293.155757 450.560232,289.366232 447.984286,285.891029 C444.71088,281.470072 439.586885,277.582903 433.016826,274.832126 L427.792396,272.643037 L431.190414,268.116066 C465.271958,222.724535 457.019628,189.364629 428.435918,167.903365 C401.059276,147.344147 355.5794,137.065468 309.961893,137.065468" id="Fill-24" fill="#D1D4E2"></path>
        <path d="M293.37688,359 L325.62312,359 C328.039379,359 330,360.967768 330,363.396255 C330,369.084003 327.702483,374.23702 323.996632,377.966251 C320.285259,381.692706 315.160949,384 309.5,384 C303.862983,384 298.738674,381.692706 295.022698,377.966251 L294.994163,377.932946 C291.290153,374.198165 289,369.058099 289,363.396255 C289,360.967768 290.959701,359 293.37688,359 Z M338.570329,239.592026 C329.883861,244.189639 319.990136,246.794766 309.499304,246.794766 C299.01313,246.794766 289.119405,244.19057 280.433868,239.592026 C277.862859,238.231736 275.399908,236.694543 273.058055,235 C268.425582,238.175872 263.346909,240.740964 257.944065,242.574236 C251.92362,244.61793 245.50262,245.766867 238.845012,245.864629 C238.820793,249.520932 238.632625,252.952848 238.295413,256.17248 C242.065294,255.336381 245.98515,254.894124 250.004679,254.894124 C264.865294,254.894124 278.320238,260.91627 288.054672,270.64779 C297.791901,280.380241 303.817934,293.826722 303.817934,308.678183 C303.817934,323.527782 297.791901,336.976125 288.054672,346.709507 C278.320238,356.439165 264.865294,362.462242 250.004679,362.462242 C235.146859,362.462242 221.695641,356.441958 211.957481,346.709507 C207.824306,342.577428 204.358102,337.774981 201.740517,332.483723 C201.64457,333.403618 201.556075,334.327237 201.474101,335.258305 C198.570539,368.693878 207.260733,407.673029 277.06268,416.322648 C275.979316,412.997805 275.392456,409.449506 275.392456,405.763409 C275.392456,403.321218 277.375672,401.338044 279.821856,401.338044 C282.267109,401.338044 284.248462,403.321218 284.248462,405.763409 C284.248462,412.733382 287.077503,419.044159 291.646632,423.611046 C296.212966,428.176072 302.527773,431 309.499304,431 C316.475493,431 322.787505,428.176072 327.357566,423.611046 C331.925763,419.044159 334.752009,412.733382 334.752009,405.763409 C334.752009,403.321218 336.735226,401.338044 339.18141,401.338044 C341.622004,401.338044 343.606152,403.321218 343.606152,405.763409 C343.606152,409.449506 343.023949,412.997805 341.940586,416.322648 C411.737875,407.673029 420.433659,368.693878 417.524507,335.258305 C417.44719,334.327237 417.356832,333.403618 417.259954,332.483723 C414.641437,337.774981 411.174302,342.577428 407.043921,346.709507 C397.307624,356.441958 383.851749,362.462242 368.993929,362.462242 C354.136108,362.462242 340.683028,356.439165 330.943004,346.709507 C321.20857,336.976125 315.185331,323.527782 315.185331,308.678183 C315.185331,293.826722 321.20857,280.380241 330.943004,270.64779 C340.683028,260.91627 354.136108,254.894124 368.993929,254.894124 C373.013458,254.894124 376.932383,255.336381 380.702264,256.17248 C380.365983,252.951917 380.177815,249.520932 380.153596,245.864629 C373.495056,245.766867 367.076851,244.61793 361.059201,242.574236 C355.652631,240.740964 350.577684,238.175872 345.941485,235 C343.601495,236.694543 341.13668,238.230805 338.570329,239.592026 L338.570329,239.592026 Z" id="Fill-25" fill="#FACFA0"></path>
        <path d="M369.355601,263.742536 C356.964088,263.742536 345.740585,268.767957 337.623098,276.888234 C329.500031,285.007581 324.4774,296.228294 324.4774,308.620737 C324.4774,321.01318 329.500031,332.234823 337.623098,340.3551 C345.740585,348.475377 356.964088,353.498009 369.355601,353.498009 C381.750834,353.498009 392.968757,348.475377 401.091824,340.3551 C409.210241,332.234823 414.232872,321.01318 414.232872,308.620737 C414.232872,296.228294 409.210241,285.007581 401.091824,276.888234 C392.968757,268.767957 381.750834,263.742536 369.355601,263.742536" id="Fill-26" fill="#FFFFFF"></path>
        <path d="M295.446386,308.620737 C295.446386,296.228294 290.423754,285.007581 282.305337,276.888234 C274.18227,268.767957 262.962487,263.742536 250.568184,263.742536 C238.177601,263.742536 226.954099,268.767957 218.835681,276.888234 C210.713544,285.007581 205.690913,296.228294 205.690913,308.620737 C205.690913,321.01318 210.713544,332.234823 218.835681,340.3551 C226.954099,348.475377 238.177601,353.498009 250.568184,353.498009 C262.962487,353.498009 274.18227,348.475377 282.305337,340.3551 C290.423754,332.234823 295.446386,321.01318 295.446386,308.620737" id="Fill-27" fill="#FFFFFF"></path>
        <path d="M308.569091,368 L299,368 C299.600388,369.411713 300.492155,370.678322 301.612198,371.730769 L301.627974,371.749126 C303.757635,373.757867 306.722457,375 310.002784,375 C313.273832,375 316.237726,373.750874 318.381306,371.730769 C319.499494,370.675699 320.3959,369.409091 321,368 L308.569091,368 Z M293.37688,359 L325.62312,359 C328.039379,359 330,360.967768 330,363.396255 C330,369.084003 327.702483,374.23702 323.996632,377.966251 C320.285259,381.692706 315.160949,384 309.5,384 C303.862983,384 298.738674,381.692706 295.022698,377.966251 L294.994163,377.932946 C291.290153,374.198165 289,369.058099 289,363.396255 C289,360.967768 290.959701,359 293.37688,359 L293.37688,359 Z" id="Fill-28" fill="#1C1038"></path>
        <path d="M320.982667,367.76429 L298.935538,367.76429 C299.537213,369.266151 300.430889,370.613641 301.553333,371.733294 L301.569142,371.752823 C303.703365,373.889836 306.674538,375.211288 309.961893,375.211288 C313.239948,375.211288 316.210191,373.882397 318.358363,371.733294 C319.478947,370.610851 320.377273,369.263361 320.982667,367.76429" id="Fill-29" fill="#F58F7E"></path>
        <path d="M423.725748,314.066493 C424.893759,320.391047 425.989233,327.259619 426.609507,334.407174 C426.691342,335.348278 426.768527,336.293102 426.830833,337.242575 C428.176463,336.857578 429.599279,336.65392 431.069521,336.65392 C433.093081,336.65392 435.025506,337.043567 436.798911,337.749395 C437.270393,336.908725 437.702817,336.031787 438.092464,335.125091 C440.221107,330.193595 441.120364,324.577658 440.595875,319.800533 C440.149501,315.745974 438.712737,312.460479 436.170268,311.248761 C433.578512,310.011935 429.527673,310.59129 423.725748,314.066493" id="Fill-30" fill="#FACFA0"></path>
        <path d="M193.314279,334.407174 C193.933622,327.259619 195.030027,320.388258 196.203617,314.063704 C190.398902,310.59129 186.349923,310.009145 183.754447,311.248761 C181.215698,312.460479 179.778934,315.745974 179.33256,319.800533 C178.803422,324.577658 179.704538,330.193595 181.831322,335.125091 C182.222828,336.031787 182.653393,336.908725 183.129525,337.749395 C184.900139,337.043567 186.834424,336.65392 188.858914,336.65392 C190.326367,336.65392 191.747322,336.857578 193.092952,337.242575 C193.159908,336.293102 193.232444,335.348278 193.314279,334.407174" id="Fill-31" fill="#FACFA0"></path>
        <path d="M192.775841,346.773579 C191.679436,345.971036 190.324507,345.494905 188.858914,345.494905 C187.022273,345.494905 185.361392,346.23979 184.162693,347.439419 L183.974844,347.615179 C182.884019,348.789699 182.216319,350.380834 182.216319,352.13564 C182.216319,353.98065 182.951905,355.642461 184.144094,356.83372 L184.162693,356.84767 C185.353022,358.040789 187.012974,358.778235 188.858914,358.778235 C190.579312,358.778235 192.140689,358.133783 193.308699,357.081086 C192.95532,353.64959 192.79072,350.206005 192.775841,346.773579" id="Fill-32" fill="#7ED2EF"></path>
        <path d="M427.147945,346.773579 C427.133995,350.206005 426.970325,353.64959 426.614156,357.081086 C427.782167,358.136573 429.344474,358.778235 431.069521,358.778235 C432.824327,358.778235 434.415462,358.107745 435.592772,357.01599 L435.765742,356.83372 C436.967231,355.632232 437.707467,353.969491 437.707467,352.13564 C437.707467,350.301789 436.967231,348.640908 435.765742,347.439419 C434.564254,346.23979 432.901512,345.494905 431.069521,345.494905 C429.603928,345.494905 428.248999,345.971036 427.147945,346.773579" id="Fill-33" fill="#7ED2EF"></path>
        <path d="M268.770922,418.815465 C268.391505,422.977897 268.63608,426.714415 269.517668,429.841819 C270.429013,433.073377 272.024799,435.601897 274.307813,437.159554 C276.628955,438.74325 279.821455,439.436989 283.920651,438.990615 C288.453202,438.497744 293.946385,436.645295 300.435539,433.136613 L306.674538,436.017582 L308.606963,435.597247 L308.606963,438.637236 C299.358663,444.183426 291.432745,447.046726 284.850596,447.761854 C278.546501,448.449083 273.370429,447.200167 269.332609,444.445671 C265.256661,441.665136 262.493795,437.452487 261.022623,432.225267 C259.787656,427.836858 259.470545,422.711003 260.06199,417.131335 L268.770922,418.815465" id="Fill-34" fill="#1C1038"></path>
        <path d="M348.443005,418.815465 C348.822422,422.977897 348.576917,426.714415 347.697189,429.841819 C346.788633,433.073377 345.192848,435.601897 342.905184,437.159554 C340.583112,438.74325 337.392472,439.436989 333.296995,438.990615 C328.764445,438.497744 323.270331,436.645295 316.777457,433.136613 L310.544038,436.017582 L308.606963,435.597247 L308.606963,438.637236 C317.858983,444.183426 325.779322,447.046726 332.365191,447.761854 C338.665566,448.449083 343.842568,447.200167 347.879458,444.445671 C351.955406,441.665136 354.720131,437.452487 356.195024,432.225267 C357.43092,427.836858 357.743381,422.711003 357.151937,417.131335 L348.443005,418.815465" id="Fill-35" fill="#1C1038"></path>
        <path d="M274.307813,437.159554 C276.628955,438.74325 279.821455,439.436989 283.920651,438.990615 C287.021087,438.653975 290.569756,437.677533 294.581537,435.973875 C291.356489,434.338102 288.422513,432.199229 285.886554,429.66606 C284.61253,428.390175 283.43987,427.012927 282.377873,425.551054 C277.54681,425.087942 272.965903,424.496497 268.622131,423.787879 C268.707686,425.989058 269.004338,428.020057 269.517668,429.841819 C270.429013,433.073377 272.024799,435.601897 274.307813,437.159554" id="Fill-36" fill="#FFFFFF"></path>
        <path d="M286.098582,438.663275 C288.655,438.174124 291.481102,437.290676 294.581537,435.973875 C291.356489,434.338102 288.422513,432.199229 285.886554,429.66606 C284.61253,428.390175 283.43987,427.012927 282.377873,425.551054 C278.599508,425.189306 274.970863,424.748512 271.49194,424.234253 C271.610973,426.113671 271.894606,427.863827 272.34191,429.452172 C273.252326,432.68373 274.850901,435.21039 277.133915,436.769907 C279.330444,438.268978 282.309987,438.971086 286.098582,438.663275" id="Fill-37" fill="#F58F7E"></path>
        <path d="M334.037231,429.66606 C331.182301,432.52006 327.822411,434.87375 324.097982,436.572759 C327.515529,437.908159 330.576907,438.694893 333.296995,438.990615 C337.392472,439.436989 340.583112,438.74325 342.905184,437.159554 C345.192848,435.601897 346.788633,433.073377 347.697189,429.841819 C348.17797,428.13816 348.466253,426.250373 348.572267,424.212864 C345.048706,424.736423 341.377285,425.183726 337.551492,425.551054 C336.488565,427.012927 335.315905,428.390175 334.037231,429.66606" id="Fill-38" fill="#F58F7E"></path>
        <path d="M358.363655,483.433602 L349.749577,483.433602 C349.158132,488.244206 348.361169,493.06039 347.380078,497.874714 C346.130232,504.016998 344.592104,510.132315 342.79917,516.217873 C342.309089,517.885264 340.920682,519.043975 339.314667,519.324818 C316.628666,523.225936 300.58433,523.225936 277.902979,519.324818 C276.296965,519.043975 274.902977,517.885264 274.412897,516.217873 C272.625543,510.132315 271.082765,504.016998 269.832919,497.874714 C268.852757,493.06039 268.059514,488.244206 267.46807,483.433602 L258.854922,483.433602 C262.154365,515.278629 273.951644,536.083352 288.422513,545.937976 C294.807514,550.286397 301.717933,552.460608 308.606963,552.460608 C315.494134,552.460608 322.410133,550.286397 328.794203,545.937976 C343.266002,536.083352 355.061421,515.278629 358.363655,483.433602" id="Fill-39" fill="#7ED2EF"></path>
        <path d="M198.089545,521.167039 C190.728103,518.661768 185.576209,512.326984 183.316443,503.8152 C183.261577,503.8245 183.20392,503.833799 183.148123,503.841239 C180.754446,504.216007 178.395176,504.16579 176.14006,503.742665 C177.251344,509.511112 179.750105,514.223142 183.383399,517.263131 C185.007083,518.61806 186.873482,519.652159 188.950048,520.30126 C191.838457,521.205166 194.97702,521.498099 198.089545,521.167039" id="Fill-40" fill="#FFFFFF"></path>
        <path d="M186.57032,463.743883 C187.651846,464.106562 188.695244,464.561305 189.690284,465.094163 C192.266231,460.232412 195.522898,455.349272 199.51887,450.569357 C206.724082,441.950629 212.717575,435.609336 217.663951,431.203258 C213.107222,433.311443 205.037162,440.92025 191.94354,456.582379 C189.964618,458.949088 188.176334,461.342766 186.57032,463.743883" id="Fill-41" fill="#FFFFFF"></path>
        <path d="M394.949539,432.337791 C392.046252,440.644057 396.011536,461.881204 400.929084,483.265282 L401.169009,484.305891 L400.914204,485.31953 C398.770682,493.793186 398.929702,500.671987 400.611042,506.052647 C401.879487,510.121156 404.01929,513.338764 406.663123,515.730582 C409.306955,518.12147 412.502245,519.732134 415.866785,520.584893 C420.001319,521.632941 424.35997,521.519488 428.263878,520.30126 C430.344164,519.652159 432.209634,518.61806 433.834247,517.263131 C437.467541,514.223142 439.967232,509.511112 441.072007,503.742665 C438.971261,504.134172 436.775662,504.206707 434.544725,503.910985 L434.069523,503.841239 C428.417319,502.959651 423.654142,499.863865 420.529528,495.57682 C417.405844,491.294425 415.910493,485.819841 416.79487,480.179726 C417.679248,474.526592 420.775033,469.766205 425.062079,466.639731 C426.758298,465.401975 428.637716,464.420883 430.641747,463.743883 C429.041312,461.342766 427.253958,458.949088 425.274106,456.582379 C404.908317,432.228057 396.694115,427.346778 394.949539,432.337791" id="Fill-42" fill="#D1D4E2"></path>
        <path d="M401.169009,484.305891 L400.914204,485.31953 C398.770682,493.793186 398.929702,500.671987 400.611042,506.052647 C401.879487,510.121156 404.01929,513.338764 406.663123,515.730582 C409.306955,518.12147 412.502245,519.732134 415.866785,520.584893 C420.001319,521.632941 424.35997,521.519488 428.263878,520.30126 C428.622837,520.190597 428.979006,520.065984 429.329595,519.931142 C427.753339,519.981359 426.167783,519.875346 424.595246,519.603802 C421.17398,519.015147 417.867096,517.657427 415.045644,515.478567 C412.219542,513.298777 409.839814,510.257857 408.253328,506.297223 C406.168392,501.063494 405.470933,494.219101 406.951405,485.605023 L407.129025,484.574645 L406.811914,483.555425 C400.246504,462.61958 394.651027,441.748831 396.900563,433.247277 C397.28091,431.823531 398.212715,431.125143 399.841978,431.34368 C397.132119,429.99526 395.598641,430.489991 394.949539,432.337791 C392.046252,440.644057 396.011536,461.881204 400.929084,483.265282 L401.169009,484.305891" id="Fill-43" fill="#FFFFFF"></path>
        <path d="M267.020766,479.44321 C266.78549,477.023494 268.554245,474.866022 270.976751,474.627956 C273.399257,474.38989 275.557658,476.160505 275.792934,478.581151 C276.37415,484.428643 277.278056,490.272416 278.465596,496.112469 C279.474586,501.074653 280.700253,506.062877 282.109119,511.069699 C300.992576,514.043662 316.219491,514.043662 335.104808,511.069699 C336.517394,506.062877 337.738411,501.074653 338.747401,496.112469 C339.93494,490.272416 340.838847,484.428643 341.420062,478.581151 C341.660918,476.160505 343.81839,474.38989 346.236246,474.627956 C348.658752,474.866022 350.432156,477.023494 350.191301,479.44321 C349.581257,485.583635 348.629923,491.728709 347.380078,497.874714 C346.130232,504.016998 344.592104,510.132315 342.79917,516.217873 C342.309089,517.885264 340.920682,519.043975 339.314667,519.324818 C316.628666,523.225936 300.58433,523.225936 277.902979,519.324818 C276.296965,519.043975 274.902977,517.885264 274.412897,516.217873 C272.625543,510.132315 271.082765,504.016998 269.832919,497.874714 C268.584003,491.728709 267.63174,485.583635 267.020766,479.44321" id="Fill-44" fill="#1C1038"></path>
        <path d="M278.465596,496.112469 C279.474586,501.074653 280.700253,506.062877 282.109119,511.069699 C300.992576,514.043662 316.219491,514.043662 335.104808,511.069699 C336.517394,506.062877 337.738411,501.074653 338.747401,496.112469 C339.60853,491.88959 340.319008,487.662991 340.867675,483.433602 L276.349971,483.433602 C276.898639,487.662991 277.610046,491.88959 278.465596,496.112469" id="Fill-45" fill="#F58F7E"></path>
        <path d="M340.867675,483.433602 L336.767549,483.433602 C336.493215,487.065036 336.109148,490.70019 335.614417,494.341854 C334.930908,499.359835 334.037231,504.415945 332.955705,509.506462 C324.448571,511.421218 316.657495,512.671064 308.894316,513.298777 C317.330775,513.281108 325.770953,512.538082 335.104808,511.069699 C336.517394,506.062877 337.738411,501.074653 338.747401,496.112469 C339.60853,491.88959 340.319008,487.662991 340.867675,483.433602" id="Fill-46" fill="#FFFFFF"></path>
        <path d="M207.877213,276.015016 C170.26188,234.890072 160.764354,196.413609 207.08955,164.710865 C235.34406,145.372664 281.228461,137.097087 326.803191,139.099257 C350.124345,140.122197 373.286477,143.831746 393.896842,150.125612 C369.278416,141.41947 339.651307,137.066398 309.961893,137.066398 C264.343455,137.066398 218.86544,147.346007 191.487867,167.904295 C162.904157,189.366488 154.653688,222.725465 188.738021,268.116996 L192.136969,272.643037 L186.90696,274.833056 C180.336901,277.583833 175.212905,281.470072 171.94043,285.891959 C169.368203,289.366232 167.959337,293.156687 167.938878,296.928543 C167.917489,300.67064 169.263119,304.505732 172.197095,308.126937 L173.406023,309.511624 C174.9581,306.795256 177.131381,304.620115 179.957483,303.271695 C180.151842,303.178701 180.35178,303.089426 180.550788,303.005731 C168.647496,292.001695 190.072492,277.925123 207.877213,276.015016" id="Fill-47" fill="#FFFFFF"></path>
        <g id="Group-51" transform="translate(263.419102, 21.000000)">
            <mask id="mask-4" fill="white">
                <use xlink:href="#path-3"></use>
            </mask>
            <g id="Clip-49"></g>
            <path d="M40.0889748,5.51099594 C17.1753062,9.0979015 1.50592334,30.5804072 5.09191898,53.4921141 C8.67698775,76.4047478 30.1633022,92.0749836 53.0751172,88.4890049 C75.987859,84.9030262 91.6572418,63.4195936 88.0693925,40.5069599 C84.4815431,17.595253 63.0007898,1.92501722 40.0889748,5.51099594" id="Fill-48" fill="#7ED2EF" mask="url(#mask-4)"></path>
            <path d="M8.51941194,19.1084116 C15.5301291,9.4933856 26.2143655,2.55131641 38.9007349,0.564948118 C51.5731684,-1.41863295 63.8609693,1.92697615 73.474924,8.93872616 C83.0879495,15.9523343 90.0308451,26.6330125 92.0143968,39.3195696 L92.0868638,39.7794631 C93.9161909,52.2913536 90.5687731,64.3972371 83.6444589,73.8942702 C76.6290964,83.5083671 65.9495053,90.4522944 53.2631359,92.4368045 L52.8023201,92.5046272 C40.2906147,94.3367686 28.1830522,90.9902304 18.6889469,84.0639556 C9.07127597,77.0503474 2.13023857,66.3678111 0.143899661,53.6849703 L0.0770070506,53.2241477 C-1.75696535,40.7113281 1.59045236,28.6063737 8.51941194,19.1084116 Z M40.2450906,9.259258 C29.964068,10.8693498 21.3070493,16.4930576 15.6258227,24.285233 C9.93995085,32.0774083 7.22987106,42.0454838 8.84086809,52.3368784 L8.84644248,52.3777578 C10.463943,62.6394219 16.0829222,71.2817035 23.8638335,76.9565105 C31.6540355,82.6406084 41.6238216,85.3525865 51.9141349,83.7415656 L51.9958925,83.7294876 C62.2425398,82.1054596 70.8670412,76.4882553 76.5380481,68.7183779 C82.2183456,60.9234153 84.9321416,50.9562688 83.3230027,40.6685906 L83.3137121,40.6267821 C81.7008569,30.3632598 76.0772323,21.7200492 68.2981791,16.044313 C60.504261,10.3602152 50.5363329,7.6491662 40.2450906,9.259258 L40.2450906,9.259258 Z" id="Fill-50" fill="#1C1038" mask="url(#mask-4)"></path>
        </g>
        <path d="M342.722915,57.6649298 C346.025148,78.7700248 331.590547,98.5601781 310.485452,101.863342 C303.213284,103.001594 296.100137,102.034451 289.760704,99.4138673 C297.22444,104.148216 306.376026,106.293598 315.801945,104.819636 L315.883781,104.807547 C326.140141,103.182003 334.772817,97.5595576 340.4492,89.78243 C346.134882,81.980194 348.85125,72.0037472 347.240586,61.7064695 L347.231287,61.664622 C345.712687,51.9969168 340.636119,43.7669062 333.55645,38.0951735 C338.25267,43.4293363 341.540955,50.1212184 342.722915,57.6649298" id="Fill-52" fill="#FFFFFF"></path>
        <polygon id="Fill-53" fill="#1C1038" points="305.540006 132.192558 314.38378 132.192558 314.38378 110.500668 305.540006 110.500668"></polygon>
        <path d="M369.355601,270.637146 C358.867685,270.637146 349.370159,274.889783 342.496938,281.763934 C335.622787,288.633436 331.36922,298.132821 331.36922,308.620737 C331.36922,319.109584 335.622787,328.607109 342.496938,335.47847 C349.370159,342.352621 358.867685,346.603399 369.355601,346.603399 C379.847237,346.603399 389.340113,342.352621 396.214264,335.47847 C403.086555,328.607109 407.341052,319.109584 407.341052,308.620737 C407.341052,298.132821 403.086555,288.633436 396.214264,281.763934 C389.340113,274.889783 379.847237,270.637146 369.355601,270.637146" id="Fill-54" fill="#7ED2EF"></path>
        <path d="M398.030446,309.937539 C399.717366,311.692345 399.659709,314.484039 397.905833,316.170958 C396.151028,317.858808 393.358404,317.803011 391.671484,316.050995 C388.802605,313.073313 385.336701,310.667546 381.467201,309.026193 C377.766951,307.452727 373.670544,306.581369 369.355601,306.581369 C365.038798,306.581369 360.944251,307.452727 357.242141,309.026193 C353.373571,310.667546 349.908597,313.073313 347.038788,316.050995 C345.350938,317.803011 342.559244,317.858808 340.805369,316.170958 C339.050563,314.484039 338.997556,311.692345 340.685406,309.937539 C344.376356,306.108957 348.827072,303.01875 353.792046,300.908706 C358.588701,298.869337 363.852188,297.740384 369.355601,297.740384 C374.859014,297.740384 380.121571,298.869337 384.918226,300.908706 C389.8832,303.015961 394.333916,306.108957 398.030446,309.937539" id="Fill-55" fill="#1C1038"></path>
        <path d="M402.053387,299.809511 C403.442724,297.81292 402.952643,295.064933 400.952332,293.674666 C398.952951,292.285329 396.208684,292.778199 394.820277,294.774791 C393.508125,296.649559 391.91234,298.331829 390.084998,299.749065 C388.292065,301.139332 386.288034,302.272005 384.125913,303.080127 C383.846929,303.18521 383.582825,303.315403 383.33732,303.466984 L390.801056,309.719002 C392.469377,308.847644 394.036333,307.837724 395.492627,306.709701 C398.021146,304.748448 400.231625,302.415216 402.053387,299.809511" id="Fill-56" fill="#1C1038"></path>
        <path d="M388.811904,291.313536 C389.637695,289.026802 388.455735,286.497353 386.172721,285.666912 C383.885057,284.837402 381.356537,286.020291 380.526097,288.307955 C379.742153,290.454268 378.630869,292.489916 377.228513,294.328417 C375.853125,296.13158 374.205263,297.743174 372.320265,299.079505 C372.081269,299.252474 371.859012,299.444973 371.661864,299.65514 L380.482389,303.780375 C381.866147,302.511001 383.125292,301.131893 384.241226,299.66723 C386.18295,297.122901 387.715499,294.299589 388.811904,291.313536" id="Fill-57" fill="#1C1038"></path>
        <path d="M250.568184,270.637146 C261.056101,270.637146 270.553626,274.889783 277.426847,281.763934 C284.300069,288.633436 288.553636,298.132821 288.553636,308.620737 C288.553636,319.109584 284.300069,328.607109 277.426847,335.47847 C270.553626,342.352621 261.056101,346.603399 250.568184,346.603399 C240.080268,346.603399 230.582743,342.352621 223.710451,335.47847 C216.83723,328.607109 212.585523,319.109584 212.585523,308.620737 C212.585523,298.132821 216.83723,288.633436 223.710451,281.763934 C230.582743,274.889783 240.080268,270.637146 250.568184,270.637146" id="Fill-58" fill="#7ED2EF"></path>
        <path d="M221.897989,309.937539 C220.21107,311.692345 220.264076,314.484039 222.017952,316.170958 C223.772758,317.858808 226.565382,317.803011 228.251371,316.050995 C231.121181,313.073313 234.591734,310.667546 238.456585,309.026193 C242.161484,307.452727 246.252311,306.581369 250.568184,306.581369 C254.884988,306.581369 258.979534,307.452727 262.680714,309.026193 C266.550214,310.667546 270.016118,313.073313 272.884997,316.050995 C274.574707,317.803011 277.364541,317.858808 279.119347,316.170958 C280.873222,314.484039 280.930879,311.692345 279.242099,309.937539 C275.547429,306.108957 271.097644,303.01875 266.131739,300.908706 C261.335084,298.869337 256.071597,297.740384 250.568184,297.740384 C245.065702,297.740384 239.806864,298.869337 235.00556,300.908706 C230.045235,303.015961 225.59173,306.108957 221.897989,309.937539" id="Fill-59" fill="#1C1038"></path>
        <path d="M217.870399,299.809511 C216.481061,297.81292 216.975792,295.064933 218.971453,293.674666 C220.969904,292.285329 223.715101,292.778199 225.107228,294.774791 C226.416591,296.649559 228.012376,298.331829 229.838787,299.749065 C231.63079,301.139332 233.637611,302.272005 235.803452,303.080127 C236.081506,303.18521 236.34189,303.315403 236.586466,303.466984 L229.12459,309.719002 C227.457199,308.847644 225.887452,307.837724 224.431159,306.709701 C221.902639,304.748448 219.69123,302.415216 217.870399,299.809511" id="Fill-60" fill="#1C1038"></path>
        <path d="M231.117461,291.313536 C230.285161,289.026802 231.46712,286.497353 233.754784,285.666912 C236.043378,284.837402 238.571898,286.020291 239.401408,288.307955 C240.186282,290.454268 241.297566,292.489916 242.696203,294.328417 C244.069731,296.13158 245.719453,297.743174 247.602591,299.079505 C247.848096,299.252474 248.066633,299.444973 248.263781,299.65514 L239.446976,303.780375 C238.056708,302.511001 236.800353,301.131893 235.68349,299.66723 C233.743625,297.122901 232.207356,294.299589 231.117461,291.313536" id="Fill-61" fill="#1C1038"></path>
        <polygon id="Fill-62" fill="#1C1038" points="301.122768 313.041694 320.088991 313.041694 320.088991 304.20071 301.122768 304.20071"></polygon>
        <path d="M305.540006,113.881017 C297.102617,113.081265 289.184138,109.986409 282.545263,105.142327 C272.918475,98.1221741 265.970859,87.4296699 263.982637,74.7349948 L263.915681,74.2737422 C263.858954,73.8720061 263.803157,73.4721299 263.7548,73.0722536 C219.507101,82.2061705 179.957483,104.198433 149.188403,134.968443 C108.042999,176.113847 82.5932027,232.958576 82.5932027,295.743793 C82.5932027,358.52808 108.042999,415.37188 149.188403,456.517283 C153.934841,461.263721 158.890516,465.800921 164.03869,470.114004 C167.133546,466.401665 171.531254,463.743883 176.671988,462.919022 C179.047997,458.889572 181.872239,454.866631 185.174473,450.919946 C212.952851,417.697671 225.819566,415.799654 230.588322,429.437293 C234.139781,439.608098 230.222854,461.883994 225.118388,484.209176 C227.219133,493.072479 227.131718,500.638509 225.532213,506.919356 C235.788573,511.023202 246.411332,514.400761 257.340972,516.991587 C253.798812,507.372239 251.236815,496.182214 249.980459,483.433602 L243.455037,483.433602 C241.0595,483.433602 239.107546,481.528146 239.0378,479.148417 C237.956274,468.463353 238.100416,457.610898 239.342822,446.789131 C240.446666,437.202331 242.421869,427.603442 245.182875,418.143115 C212.934252,407.359476 199.398907,387.710674 194.784521,366.43261 C192.95811,367.196094 190.954079,367.617359 188.858914,367.617359 C184.614646,367.617359 180.760025,365.894172 177.953452,363.108987 L177.909745,363.06528 C175.106892,360.257777 173.377194,356.389207 173.377194,352.13564 C173.377194,348.864094 174.400134,345.822245 176.15029,343.313254 C175.237084,341.825343 174.425242,340.249087 173.718484,338.615174 C171.015135,332.351996 169.877812,325.128186 170.554812,318.891977 C168.541482,317.226446 166.813645,315.483729 165.360141,313.686146 C161.069376,308.391971 159.101613,302.629104 159.133231,296.894135 C159.16485,291.189854 161.17818,285.613905 164.859831,280.642421 C168.151835,276.193565 172.797839,272.214332 178.543967,269.074839 C144.375009,220.767931 154.520706,184.649809 186.205782,160.859034 C214.275232,139.780907 259.705821,128.912643 305.540006,128.257032 L305.540006,113.881017" id="Fill-63" fill="#F58F7E"></path>
        <path d="M347.562347,94.9631519 C340.540334,104.58622 329.85062,111.536626 317.152225,113.522988 L316.690973,113.590874 C315.921908,113.704328 315.152844,113.798252 314.38378,113.871718 L314.38378,128.257032 C360.223544,128.912643 405.648553,139.780907 433.723583,160.859034 C465.40215,184.648879 475.553426,220.767931 441.384468,269.072979 C447.128736,272.214332 451.77195,276.193565 455.063955,280.642421 C458.745606,285.613905 460.759866,291.189854 460.793344,296.894135 C460.821242,302.629104 458.856269,308.391971 454.563644,313.686146 C453.112001,315.483729 451.386953,317.223656 449.372693,318.891977 C450.045973,325.128186 448.91144,332.351996 446.209951,338.615174 C445.504123,340.247227 444.696001,341.817903 443.782795,343.303955 C445.527372,345.807366 446.552171,348.855725 446.552171,352.13564 C446.552171,356.410596 444.815964,360.282885 442.01497,363.082949 L441.730407,363.344263 C438.943363,365.991816 435.189176,367.617359 431.069521,367.617359 C428.969706,367.617359 426.970325,367.196094 425.138334,366.43447 C420.408635,388.246323 406.302304,408.348937 372.263538,418.942867 C374.907371,428.14467 376.800738,437.472015 377.872035,446.789131 C379.12746,457.715982 379.261372,468.67445 378.146368,479.462739 C377.915742,481.733664 375.997266,483.426163 373.762609,483.424303 L373.762609,483.433602 L367.236257,483.433602 C365.952003,496.485376 363.294221,507.900448 359.61722,517.672307 C370.72076,515.199584 381.520208,511.914089 391.945818,507.881849 C390.095228,501.415943 389.88878,493.531872 392.094609,484.209176 C386.994792,461.883994 383.073215,439.608098 386.629324,429.437293 C391.392501,415.799654 404.264795,417.697671 432.041314,450.919946 C435.343547,454.866631 438.169649,458.889572 440.543798,462.919022 C446.162524,463.821069 450.892223,466.906625 454.001028,471.172282 C454.078213,471.277365 454.155399,471.384309 454.227004,471.492183 C459.975922,466.769923 465.483985,461.770541 470.737243,456.517283 C511.885436,415.37188 537.331513,358.52808 537.331513,295.743793 C537.331513,232.956716 511.885436,176.111987 470.737243,134.968443 C439.970952,104.201223 400.424124,82.2098903 356.181074,73.0741135 C355.225091,81.0958165 352.191612,88.6125596 347.562347,94.9631519" id="Fill-64" fill="#F58F7E"></path>
        <path d="M314,465.497637 C314,467.98372 311.98729,470 309.5,470 C307.018382,470 305,467.98372 305,465.497637 C305,463.015335 307.018382,461 309.5,461 C311.98729,461 314,463.015335 314,465.497637 Z M314,448.502363 C314,450.984665 311.98729,453 309.5,453 C307.018382,453 305,450.984665 305,448.502363 C305,446.015335 307.018382,444 309.5,444 C311.98729,444 314,446.015335 314,448.502363 Z M347.788845,444.822106 C343.750188,447.579259 338.57092,448.82938 332.267788,448.141488 C326.088392,447.470351 318.731171,444.908674 310.200776,440.008722 C310.085412,440.008722 309.970049,440.011515 309.854685,440.011515 C308.892701,440.011515 307.940952,439.970558 306.998505,439.890505 C298.38624,444.865855 290.959242,447.466628 284.732398,448.141488 C278.425544,448.82938 273.247207,447.579259 269.20762,444.822106 C265.129888,442.038889 262.365813,437.822175 260.893997,432.589912 C260.033422,429.540474 259.620345,426.133593 259.643604,422.469799 C257.534497,422.010894 255.486793,421.520341 253.503283,421 C250.897368,429.950976 249.032013,439.053679 247.983506,448.170344 C246.948955,457.166931 246.713576,466.15514 247.35831,475 L369.643736,475 C370.283818,466.15514 370.053091,457.166931 369.01854,448.170344 C367.995153,439.267772 366.191201,430.383817 363.681112,421.637627 C361.63806,422.133765 359.527092,422.600117 357.35286,423.032959 C357.334253,426.485451 356.921177,429.696856 356.10805,432.589912 C354.632512,437.822175 351.866576,442.038889 347.788845,444.822106 L347.788845,444.822106 Z" id="Fill-65" fill="#FFFFFF"></path>
    </g>
</svg>