<?xml version="1.0" encoding="UTF-8"?>
<svg width="695px" height="235px" viewBox="0 0 695 235" version="1.1" xmlns="http://www.w3.org/2000/svg" xmlns:xlink="http://www.w3.org/1999/xlink">
    <title>logo-rect-light</title>
    <defs>
        <polygon id="path-1" points="0 1.42108547e-14 41.089 1.42108547e-14 41.089 2.282 0 2.282"></polygon>
    </defs>
    <g id="logo-rect-light" stroke="none" stroke-width="1" fill="none" fill-rule="evenodd">
        <g id="Group-3" transform="translate(75.143000, 232.658000)">
            <mask id="mask-2" fill="white">
                <use xlink:href="#path-1"></use>
            </mask>
            <g id="Clip-2"></g>
            <path d="M20.545,1.42108547e-14 C31.891,1.42108547e-14 41.089,0.523 41.089,1.17 C41.089,1.816 31.891,2.342 20.545,2.342 C9.198,2.342 0,1.816 0,1.17 C0,0.523 9.198,1.42108547e-14 20.545,1.42108547e-14" id="Fill-1" fill="#1C1038" mask="url(#mask-2)"></path>
        </g>
        <path d="M161.022,46.844 C144.302,30.124 121.204,19.783 95.69,19.783 C70.176,19.783 47.078,30.124 30.358,46.844 C13.639,63.563 3.297,86.662 3.297,112.176 C3.297,137.689 13.639,160.787 30.358,177.507 C47.078,194.226 70.176,204.568 95.69,204.568 C121.203,204.568 144.301,194.226 161.022,177.507 C177.741,160.787 188.083,137.689 188.083,112.176 C188.083,86.662 177.741,63.563 161.022,46.844 Z M95.69,16.485 C122.114,16.485 146.038,27.196 163.354,44.512 C180.669,61.827 191.38,85.751 191.38,112.176 C191.38,138.599 180.669,162.523 163.354,179.839 C146.038,197.154 122.113,207.865 95.69,207.865 C69.266,207.865 45.342,197.154 28.026,179.839 C10.711,162.523 0,138.599 0,112.176 C0,85.752 10.711,61.828 28.026,44.512 C45.342,27.196 69.266,16.485 95.69,16.485 L95.69,16.485 Z" id="Fill-4" fill="#1C1038"></path>
        <path d="M52.453,117.29 C53.27,117.844 53.484,118.957 52.93,119.773 C52.376,120.591 51.264,120.804 50.447,120.251 C47.556,118.285 45.6,117.906 44.404,118.476 C43.373,118.969 42.789,120.303 42.607,121.951 C42.393,123.892 42.758,126.175 43.624,128.178 C44.038,129.138 44.567,130.025 45.201,130.759 L42.264,132.857 C41.487,131.893 40.838,130.783 40.326,129.596 C39.228,127.052 38.766,124.117 39.04,121.582 C38.222,120.905 37.521,120.197 36.929,119.467 C35.187,117.316 34.386,114.973 34.399,112.643 C34.411,110.325 35.231,108.059 36.727,106.039 C38.065,104.232 39.952,102.615 42.287,101.339 C28.402,81.709 32.526,67.032 45.4,57.365 C57.173,48.524 76.461,44.104 95.69,44.104 C114.918,44.104 134.206,48.524 145.979,57.365 C158.854,67.032 162.978,81.709 149.093,101.338 C151.427,102.614 153.314,104.231 154.653,106.039 C156.148,108.059 156.967,110.325 156.98,112.643 C156.993,114.973 156.192,117.315 154.45,119.467 C153.859,120.197 153.157,120.904 152.339,121.582 C152.613,124.116 152.152,127.052 151.054,129.596 C150.587,130.678 150.006,131.696 149.319,132.598 L146.436,130.445 C146.957,129.778 147.399,129.006 147.755,128.178 C148.621,126.175 148.986,123.892 148.772,121.951 C148.591,120.303 148.007,118.969 146.975,118.476 C145.78,117.906 143.824,118.285 140.933,120.251 C140.116,120.804 139.003,120.591 138.449,119.773 C137.895,118.957 138.109,117.844 138.926,117.29 C143.042,114.491 146.23,114.143 148.518,115.234 C149.667,115.782 150.548,116.666 151.181,117.769 C151.355,117.584 151.518,117.397 151.671,117.208 C152.863,115.736 153.41,114.178 153.402,112.657 C153.394,111.124 152.821,109.584 151.776,108.172 C150.446,106.375 148.363,104.797 145.694,103.678 L143.569,102.789 L144.951,100.949 C158.801,82.504 155.447,68.948 143.833,60.227 C132.707,51.873 114.227,47.696 95.69,47.696 C77.153,47.696 58.672,51.874 47.546,60.227 C35.931,68.949 32.579,82.504 46.429,100.949 L47.81,102.789 L45.685,103.678 C43.016,104.797 40.934,106.375 39.603,108.172 C38.558,109.584 37.985,111.124 37.977,112.657 C37.969,114.178 38.516,115.736 39.708,117.208 C39.861,117.396 40.024,117.585 40.198,117.77 C40.83,116.666 41.712,115.782 42.861,115.234 C45.149,114.143 48.336,114.491 52.453,117.29" id="Fill-5" fill="#1C1038"></path>
        <path d="M72.96,186.648 C76.109,228.838 114.168,228.838 117.317,186.648 L72.96,186.648" id="Fill-6" fill="#FFFFFF"></path>
        <path d="M84.915,216.804 C77.924,212.043 72.309,202.019 71.171,186.782 L71.028,184.852 L119.25,184.852 L119.106,186.782 C117.969,202.019 112.354,212.043 105.362,216.804 C102.15,218.992 98.649,220.088 95.139,220.088 C91.629,220.088 88.128,218.994 84.915,216.804 Z M74.921,188.444 C76.262,201.385 81.057,209.839 86.936,213.844 C89.531,215.611 92.34,216.494 95.139,216.494 C97.938,216.494 100.748,215.61 103.341,213.844 C109.221,209.839 114.015,201.385 115.356,188.444 L74.921,188.444 L74.921,188.444 Z" id="Fill-7" fill="#1C1038"></path>
        <path d="M95.139,188.444 L68.664,188.444 C67.69,188.444 66.898,187.67 66.869,186.703 C66.43,182.361 66.488,177.951 66.993,173.553 C67.51,169.053 68.501,164.546 69.913,160.125 L72.707,160.979 L78.719,162.141 C76.263,162.168 74.273,162.202 73.004,162.243 C71.838,166.097 71.01,170.025 70.558,173.961 C70.138,177.613 70.044,181.261 70.304,184.852 L119.974,184.852 C120.235,181.261 120.14,177.613 119.72,173.961 C119.268,170.025 118.439,166.097 117.273,162.243 L120.581,160.81 C121.878,165.011 122.794,169.285 123.285,173.553 C123.795,177.994 123.849,182.448 123.396,186.831 C123.302,187.754 122.522,188.441 121.614,188.44 L121.614,188.444 L95.139,188.444" id="Fill-8" fill="#1C1038"></path>
        <path d="M129.1,198.702 C128.261,196.015 128.131,192.704 129.065,188.76 C126.992,179.687 125.398,170.636 126.843,166.503 C128.779,160.961 134.009,161.731 145.297,175.231 C148.424,178.971 150.5,182.874 151.663,186.6 C152.847,190.398 153.09,194.027 152.536,197.137 C151.955,200.401 150.499,203.125 148.326,204.942 C147.307,205.794 146.135,206.443 144.828,206.85 C142.619,207.541 140.167,207.606 137.854,207.021 C135.948,206.539 134.122,205.61 132.585,204.22 C131.048,202.831 129.816,200.994 129.1,198.702 Z M132.648,189.211 C131.776,192.654 131.842,195.449 132.524,197.636 C133.041,199.29 133.91,200.596 134.985,201.568 C136.06,202.541 137.357,203.195 138.724,203.541 C140.405,203.967 142.176,203.921 143.762,203.427 C144.607,203.163 145.366,202.742 146.024,202.191 C147.538,200.926 148.568,198.946 149,196.52 C149.459,193.942 149.246,190.895 148.238,187.666 C147.208,184.367 145.354,180.889 142.546,177.533 C134.271,167.636 130.934,165.653 130.225,167.682 C129.045,171.056 130.655,179.687 132.654,188.376 L132.752,188.799 L132.648,189.211 L132.648,189.211 Z" id="Fill-9" fill="#1C1038"></path>
        <path d="M148.444,181.871 C152.061,182.437 154.534,185.829 153.968,189.445 C153.402,193.062 150.011,195.535 146.394,194.97 C142.778,194.403 140.304,191.012 140.87,187.395 C141.436,183.779 144.828,181.305 148.444,181.871" id="Fill-10" fill="#7ED2EF"></path>
        <path d="M151.33,185.567 C150.6,184.567 149.49,183.845 148.17,183.639 C146.847,183.432 145.566,183.781 144.565,184.511 C143.567,185.239 142.844,186.35 142.638,187.669 C142.431,188.992 142.779,190.273 143.509,191.273 C144.234,192.268 145.339,192.988 146.649,193.198 L146.668,193.201 C147.992,193.408 149.272,193.06 150.272,192.331 C151.267,191.605 151.987,190.502 152.197,189.19 L152.2,189.172 C152.407,187.848 152.059,186.567 151.33,185.567 Z M148.718,180.103 C151.015,180.463 152.95,181.72 154.22,183.462 C155.454,185.153 156.06,187.301 155.764,189.525 L155.736,189.72 C155.377,192.016 154.119,193.951 152.377,195.22 C150.687,196.455 148.539,197.061 146.315,196.765 L146.121,196.738 C143.824,196.379 141.889,195.121 140.618,193.379 C139.349,191.638 138.743,189.415 139.102,187.122 C139.461,184.825 140.719,182.89 142.46,181.62 C144.201,180.35 146.425,179.744 148.718,180.103 L148.718,180.103 Z" id="Fill-11" fill="#1C1038"></path>
        <path d="M59.371,188.776 C62.781,202.249 52.952,207.314 45.983,205.138 C37.817,202.59 36.103,188.645 46.357,176.382 C65.92,152.985 63.489,170.876 59.371,188.776" id="Fill-12" fill="#D1D4E2"></path>
        <path d="M57.754,197.636 C58.436,195.449 58.502,192.654 57.63,189.211 L57.526,188.799 L57.624,188.376 C59.623,179.686 61.232,171.056 60.053,167.682 C59.344,165.653 56.006,167.636 47.732,177.533 C44.925,180.889 43.07,184.367 42.04,187.666 C41.033,190.895 40.819,193.942 41.278,196.52 C41.71,198.946 42.74,200.926 44.254,202.191 C44.913,202.742 45.671,203.163 46.516,203.427 C48.103,203.921 49.873,203.967 51.554,203.541 C52.921,203.195 54.219,202.541 55.293,201.568 C56.369,200.596 57.238,199.29 57.754,197.636 Z M61.213,188.76 C62.147,192.704 62.017,196.015 61.178,198.702 C60.462,200.994 59.23,202.831 57.693,204.22 C56.157,205.61 54.33,206.539 52.424,207.021 C50.111,207.606 47.66,207.541 45.45,206.85 C44.143,206.443 42.971,205.794 41.952,204.942 C39.78,203.125 38.324,200.401 37.742,197.137 C37.188,194.027 37.431,190.398 38.616,186.6 C39.778,182.874 41.854,178.971 44.981,175.231 C56.269,161.732 61.499,160.961 63.435,166.503 C64.879,170.636 63.286,179.687 61.213,188.76 L61.213,188.76 Z" id="Fill-13" fill="#1C1038"></path>
        <path d="M41.834,181.871 C38.217,182.437 35.744,185.829 36.31,189.445 C36.876,193.062 40.267,195.535 43.884,194.97 C47.5,194.403 49.974,191.012 49.408,187.395 C48.842,183.779 45.451,181.305 41.834,181.871" id="Fill-14" fill="#7ED2EF"></path>
        <path d="M36.058,183.462 C37.329,181.72 39.263,180.463 41.56,180.103 C43.854,179.744 46.077,180.35 47.818,181.62 C49.559,182.89 50.817,184.825 51.176,187.122 C51.535,189.415 50.929,191.638 49.66,193.379 C48.389,195.121 46.455,196.379 44.158,196.738 C41.865,197.096 39.641,196.491 37.901,195.22 C36.159,193.951 34.901,192.016 34.542,189.719 C34.183,187.426 34.789,185.203 36.058,183.462 Z M42.108,183.639 C40.789,183.845 39.678,184.567 38.949,185.567 C38.219,186.567 37.871,187.848 38.078,189.172 C38.284,190.49 39.006,191.602 40.005,192.331 C41.006,193.06 42.287,193.408 43.61,193.201 C44.929,192.995 46.041,192.273 46.769,191.273 C47.499,190.273 47.847,188.992 47.64,187.669 C47.434,186.35 46.712,185.239 45.712,184.511 C44.712,183.781 43.431,183.432 42.108,183.639 L42.108,183.639 Z" id="Fill-15" fill="#1C1038"></path>
        <path d="M42.03,130.643 C43.168,129.505 44.741,128.8 46.478,128.8 C47.823,128.8 49.069,129.222 50.092,129.942 L49.78,134.835 L50.827,139.629 C49.694,140.715 48.161,141.382 46.478,141.382 C44.754,141.382 43.187,140.681 42.047,139.55 L42.03,139.532 C40.891,138.391 40.187,136.82 40.187,135.092 C40.187,133.417 40.847,131.89 41.923,130.76 L42.03,130.643 Z M46.478,132.392 C45.733,132.392 45.058,132.695 44.57,133.182 L44.495,133.254 C44.051,133.731 43.779,134.378 43.779,135.092 C43.779,135.841 44.078,136.515 44.563,137 L44.57,137.006 C45.053,137.49 45.728,137.79 46.478,137.79 C47.228,137.79 47.903,137.49 48.386,137.006 L48.386,137 C48.874,136.511 49.176,135.836 49.176,135.092 C49.176,134.345 48.874,133.671 48.386,133.182 C47.898,132.695 47.223,132.392 46.478,132.392 L46.478,132.392 Z" id="Fill-16" fill="#1C1038"></path>
        <path d="M146.81,133.182 C146.322,132.695 145.646,132.392 144.901,132.392 C144.156,132.392 143.481,132.695 142.993,133.182 L142.986,133.182 C142.502,133.667 142.203,134.342 142.203,135.092 C142.203,135.841 142.502,136.515 142.986,137 L142.993,137.006 C143.477,137.49 144.152,137.79 144.901,137.79 C145.615,137.79 146.262,137.518 146.739,137.074 L146.81,137 C147.298,136.511 147.6,135.836 147.6,135.092 C147.6,134.345 147.298,133.671 146.81,133.182 Z M144.901,128.8 C146.638,128.8 148.211,129.505 149.35,130.643 C150.488,131.781 151.193,133.354 151.193,135.092 C151.193,136.828 150.488,138.401 149.35,139.539 L149.233,139.646 C148.102,140.721 146.576,141.382 144.901,141.382 C143.244,141.382 141.73,140.734 140.603,139.678 L141.94,134.042 L141.281,129.946 C142.305,129.224 143.554,128.8 144.901,128.8 L144.901,128.8 Z" id="Fill-17" fill="#1C1038"></path>
        <path d="M84.48,164.924 C51.028,161.716 46.934,143.478 48.29,127.886 C48.673,123.469 49.503,119.312 50.206,115.798 C50.473,114.46 50.722,113.215 50.91,112.146 C51.067,111.241 51.877,110.614 52.773,110.662 L51.17,117.875 L52.406,123.743 C52.187,125.191 51.999,126.683 51.867,128.196 C50.689,141.766 54.215,157.587 82.531,161.097 C82.091,159.748 81.854,158.307 81.854,156.811 C81.854,155.82 82.658,155.015 83.65,155.015 C84.642,155.015 85.446,155.82 85.446,156.811 C85.446,159.64 86.593,162.202 88.446,164.055 C90.299,165.908 92.861,167.055 95.69,167.055 C98.518,167.055 101.08,165.908 102.933,164.055 C104.787,162.202 105.933,159.64 105.933,156.811 C105.933,155.82 106.737,155.015 107.729,155.015 C108.721,155.015 109.526,155.82 109.526,156.811 C109.526,158.307 109.288,159.748 108.849,161.097 C137.165,157.587 140.691,141.766 139.512,128.196 C139.341,126.231 139.076,124.303 138.77,122.457 L139.592,120.526 L141.322,116.544 C141.989,119.894 142.733,123.778 143.09,127.886 C144.445,143.478 140.351,161.716 106.899,164.924 C106.468,165.517 105.991,166.077 105.473,166.595 C102.969,169.098 99.509,170.648 95.69,170.648 C91.869,170.648 88.41,169.098 85.907,166.595 C85.388,166.077 84.911,165.517 84.48,164.924" id="Fill-18" fill="#1C1038"></path>
        <path d="M84.45,104.513 C81.15,101.214 76.59,99.172 71.555,99.172 C66.519,99.172 61.96,101.214 58.66,104.513 C55.36,107.813 53.318,112.373 53.318,117.408 C53.318,122.444 55.36,127.004 58.66,130.303 C61.96,133.603 66.519,135.644 71.555,135.644 C76.59,135.644 81.15,133.603 84.45,130.303 C87.75,127.004 89.792,122.444 89.792,117.408 C89.792,112.373 87.75,107.813 84.45,104.513 Z M71.555,95.579 C77.582,95.579 83.04,98.024 86.99,101.973 C90.94,105.923 93.384,111.381 93.384,117.408 C93.384,123.435 90.94,128.893 86.99,132.844 C83.04,136.793 77.582,139.237 71.555,139.237 C65.527,139.237 60.07,136.794 56.12,132.844 C52.169,128.893 49.726,123.436 49.726,117.408 C49.726,111.381 52.169,105.923 56.12,101.973 C60.07,98.024 65.527,95.579 71.555,95.579 L71.555,95.579 Z" id="Fill-19" fill="#1C1038"></path>
        <path d="M104.389,101.973 C108.339,98.024 113.797,95.579 119.825,95.579 C125.852,95.579 131.31,98.024 135.259,101.973 C139.209,105.923 141.653,111.381 141.653,117.408 C141.653,123.436 139.209,128.893 135.259,132.844 C131.31,136.794 125.851,139.237 119.825,139.237 C113.797,139.237 108.339,136.793 104.389,132.844 C100.439,128.893 97.996,123.435 97.996,117.408 C97.996,111.381 100.439,105.923 104.389,101.973 Z M119.825,99.172 C114.789,99.172 110.229,101.214 106.929,104.513 C103.629,107.813 101.587,112.373 101.587,117.408 C101.587,122.444 103.629,127.004 106.929,130.303 C110.229,133.603 114.789,135.644 119.825,135.644 C124.86,135.644 129.42,133.603 132.719,130.303 C136.019,127.004 138.061,122.444 138.061,117.408 C138.061,112.373 136.019,107.813 132.719,104.513 C129.42,101.214 124.86,99.172 119.825,99.172 L119.825,99.172 Z" id="Fill-20" fill="#1C1038"></path>
        <path d="M62.522,99.768 C63.209,97.164 63.537,94.007 63.429,90.183 C63.425,90.113 63.424,90.042 63.428,89.971 C63.486,88.982 64.335,88.229 65.323,88.286 L65.991,88.32 L66.658,88.325 C69.101,88.325 71.445,87.923 73.624,87.183 C75.189,86.652 76.671,85.947 78.049,85.094 C76.847,83.917 75.761,82.621 74.811,81.224 C74.257,80.407 74.471,79.295 75.288,78.741 C76.105,78.187 77.218,78.4 77.772,79.217 C78.95,80.95 80.374,82.502 81.995,83.826 C82.041,83.859 82.085,83.895 82.128,83.933 C83.195,84.791 84.347,85.551 85.567,86.197 C88.583,87.795 92.029,88.7 95.69,88.7 C99.352,88.7 102.796,87.795 105.812,86.197 C107.033,85.551 108.184,84.791 109.251,83.933 C109.294,83.895 109.339,83.859 109.385,83.826 C111.005,82.502 112.429,80.95 113.607,79.217 C114.162,78.4 115.274,78.187 116.091,78.741 C116.909,79.295 117.122,80.407 116.568,81.224 C115.618,82.621 114.532,83.918 113.331,85.094 C114.708,85.947 116.191,86.652 117.756,87.183 C119.935,87.923 122.278,88.325 124.721,88.325 L125.388,88.32 L126.057,88.286 C127.044,88.229 127.893,88.982 127.951,89.971 C127.955,90.042 127.955,90.112 127.951,90.181 C127.837,94.176 128.2,97.443 128.951,100.113 L124.944,98.669 C124.572,96.659 124.368,94.417 124.352,91.914 C121.651,91.875 119.046,91.409 116.605,90.579 C114.413,89.835 112.353,88.794 110.473,87.505 C109.523,88.193 108.524,88.816 107.482,89.368 C103.959,91.235 99.945,92.292 95.69,92.292 C91.435,92.292 87.421,91.235 83.897,89.368 C82.855,88.817 81.856,88.193 80.907,87.505 C79.027,88.794 76.966,89.835 74.774,90.579 C72.332,91.409 69.728,91.875 67.027,91.914 C67.013,94.176 66.844,96.225 66.538,98.082 L62.522,99.768" id="Fill-21" fill="#1C1038"></path>
        <path d="M95.69,175.858 C96.684,175.858 97.489,175.053 97.489,174.06 C97.489,173.067 96.684,172.261 95.69,172.261 C94.696,172.261 93.891,173.067 93.891,174.06 C93.891,175.053 94.696,175.858 95.69,175.858" id="Fill-22" fill="#1C1038"></path>
        <path d="M95.69,183.053 C96.684,183.053 97.489,182.248 97.489,181.255 C97.489,180.261 96.684,179.456 95.69,179.456 C94.696,179.456 93.891,180.261 93.891,181.255 C93.891,182.248 94.696,183.053 95.69,183.053" id="Fill-23" fill="#1C1038"></path>
        <path d="M95.69,47.696 C77.153,47.696 58.671,51.873 47.546,60.227 C35.931,68.949 32.579,82.504 46.429,100.949 L47.81,102.788 L45.685,103.678 C43.015,104.796 40.933,106.375 39.603,108.172 C38.558,109.584 37.985,111.124 37.977,112.657 C37.969,114.178 38.516,115.736 39.707,117.207 L40.198,117.77 C40.83,116.666 41.712,115.782 42.86,115.234 C44.628,114.391 46.933,114.407 49.788,115.748 C50.191,110.383 52.536,105.557 56.12,101.973 C58.089,100.004 60.433,98.409 63.036,97.305 C63.365,95.234 63.505,92.874 63.428,90.183 C63.424,90.113 63.424,90.042 63.428,89.97 C63.486,88.982 64.335,88.228 65.322,88.286 L65.991,88.32 L66.658,88.324 C69.101,88.324 71.444,87.922 73.623,87.183 C75.188,86.651 76.671,85.947 78.049,85.094 C76.846,83.917 75.761,82.621 74.811,81.224 C74.257,80.407 74.471,79.294 75.288,78.74 C76.105,78.186 77.218,78.4 77.771,79.217 C78.95,80.949 80.374,82.502 81.994,83.825 L82.127,83.933 C83.195,84.791 84.346,85.551 85.567,86.197 C88.583,87.794 92.028,88.699 95.69,88.699 C99.351,88.699 102.796,87.794 105.812,86.197 C107.032,85.551 108.184,84.791 109.251,83.933 L109.384,83.825 C111.005,82.502 112.429,80.949 113.607,79.217 C114.161,78.4 115.274,78.186 116.091,78.74 C116.908,79.294 117.122,80.407 116.568,81.224 C115.618,82.621 114.532,83.917 113.33,85.094 C114.708,85.947 116.19,86.651 117.755,87.183 C119.934,87.922 122.278,88.324 124.721,88.324 L125.388,88.32 L126.056,88.286 C127.044,88.228 127.893,88.982 127.951,89.97 C127.955,90.041 127.955,90.111 127.951,90.18 C127.875,92.872 128.014,95.233 128.342,97.305 C130.945,98.409 133.29,100.004 135.259,101.973 C138.843,105.557 141.188,110.383 141.591,115.748 C144.446,114.407 146.75,114.391 148.518,115.234 C149.667,115.782 150.548,116.666 151.18,117.769 L151.671,117.207 C152.863,115.736 153.41,114.177 153.402,112.657 C153.393,111.124 152.821,109.584 151.775,108.172 C150.446,106.375 148.363,104.796 145.694,103.678 L143.569,102.788 L144.95,100.949 C158.8,82.504 155.447,68.948 143.833,60.227 C132.707,51.873 114.227,47.696 95.69,47.696" id="Fill-24" fill="#D1D4E2"></path>
        <path d="M89.07,137.848 L102.309,137.848 C103.301,137.848 104.105,138.652 104.105,139.644 C104.105,141.968 103.163,144.073 101.64,145.595 C100.117,147.118 98.013,148.06 95.69,148.06 C93.374,148.06 91.272,147.118 89.746,145.595 L89.733,145.583 C88.214,144.056 87.274,141.957 87.274,139.644 C87.274,138.652 88.079,137.848 89.07,137.848 Z M107.482,89.368 C103.959,91.235 99.945,92.292 95.69,92.292 C91.435,92.292 87.421,91.235 83.897,89.368 C82.855,88.817 81.856,88.193 80.907,87.505 C79.027,88.794 76.966,89.835 74.774,90.579 C72.332,91.409 69.728,91.875 67.027,91.914 C67.018,93.399 66.942,94.792 66.804,96.098 C68.333,95.759 69.923,95.579 71.555,95.579 C77.582,95.579 83.04,98.024 86.99,101.973 C90.94,105.923 93.384,111.381 93.384,117.408 C93.384,123.435 90.94,128.893 86.99,132.844 C83.04,136.793 77.582,139.237 71.555,139.237 C65.527,139.237 60.07,136.794 56.12,132.844 C54.443,131.167 53.038,129.218 51.975,127.07 C51.936,127.443 51.9,127.819 51.867,128.196 C50.689,141.766 54.215,157.587 82.531,161.097 C82.091,159.748 81.854,158.307 81.854,156.811 C81.854,155.82 82.658,155.015 83.65,155.015 C84.642,155.015 85.446,155.82 85.446,156.811 C85.446,159.64 86.593,162.202 88.446,164.055 C90.299,165.908 92.861,167.055 95.69,167.055 C98.518,167.055 101.08,165.908 102.933,164.055 C104.787,162.202 105.933,159.64 105.933,156.811 C105.933,155.82 106.737,155.015 107.729,155.015 C108.721,155.015 109.526,155.82 109.526,156.811 C109.526,158.307 109.288,159.748 108.849,161.097 C137.165,157.587 140.691,141.766 139.512,128.196 C139.479,127.819 139.443,127.443 139.404,127.07 C138.341,129.218 136.936,131.167 135.259,132.844 C131.31,136.794 125.851,139.237 119.825,139.237 C113.797,139.237 108.339,136.793 104.389,132.844 C100.439,128.893 97.996,123.435 97.996,117.408 C97.996,111.381 100.439,105.923 104.389,101.973 C108.339,98.024 113.797,95.579 119.825,95.579 C121.456,95.579 123.045,95.759 124.575,96.098 C124.437,94.791 124.361,93.399 124.352,91.914 C121.651,91.875 119.046,91.409 116.605,90.579 C114.413,89.835 112.353,88.794 110.473,87.505 C109.523,88.193 108.524,88.816 107.482,89.368 L107.482,89.368 Z" id="Fill-25" fill="#FACFA0"></path>
        <path d="M119.825,99.172 C114.789,99.172 110.229,101.214 106.929,104.513 C103.629,107.813 101.587,112.373 101.587,117.408 C101.587,122.444 103.629,127.004 106.929,130.303 C110.229,133.603 114.789,135.644 119.825,135.644 C124.86,135.644 129.42,133.603 132.719,130.303 C136.019,127.004 138.061,122.444 138.061,117.408 C138.061,112.373 136.019,107.813 132.719,104.513 C129.42,101.214 124.86,99.172 119.825,99.172" id="Fill-26" fill="#FFFFFF"></path>
        <path d="M89.792,117.408 C89.792,112.373 87.75,107.813 84.45,104.513 C81.15,101.214 76.59,99.172 71.555,99.172 C66.519,99.172 61.96,101.214 58.66,104.513 C55.36,107.813 53.318,112.373 53.318,117.408 C53.318,122.444 55.36,127.004 58.66,130.303 C61.96,133.603 66.519,135.644 71.555,135.644 C76.59,135.644 81.15,133.603 84.45,130.303 C87.75,127.004 89.792,122.444 89.792,117.408" id="Fill-27" fill="#FFFFFF"></path>
        <path d="M95.106,141.441 L91.21,141.441 C91.453,142.052 91.817,142.6 92.272,143.054 L92.279,143.062 C93.147,143.93 94.354,144.468 95.69,144.468 C97.022,144.468 98.228,143.928 99.1,143.054 C99.557,142.598 99.922,142.051 100.167,141.441 L95.106,141.441 Z M89.07,137.848 L102.309,137.848 C103.301,137.848 104.105,138.652 104.105,139.644 C104.105,141.968 103.163,144.073 101.64,145.595 C100.117,147.118 98.013,148.06 95.69,148.06 C93.374,148.06 91.272,147.118 89.746,145.595 L89.733,145.583 C88.214,144.056 87.274,141.957 87.274,139.644 C87.274,138.652 88.079,137.848 89.07,137.848 L89.07,137.848 Z" id="Fill-28" fill="#1C1038"></path>
        <path d="M100.167,141.441 L91.21,141.441 C91.453,142.052 91.817,142.6 92.272,143.054 L92.279,143.062 C93.147,143.93 94.354,144.468 95.69,144.468 C97.022,144.468 98.228,143.928 99.1,143.054 C99.557,142.598 99.922,142.051 100.167,141.441" id="Fill-29" fill="#F58F7E"></path>
        <path d="M141.917,119.621 C142.392,122.191 142.838,124.982 143.09,127.886 C143.124,128.269 143.154,128.653 143.18,129.039 C143.727,128.884 144.304,128.8 144.901,128.8 C145.724,128.8 146.509,128.958 147.229,129.245 C147.421,128.903 147.597,128.547 147.755,128.178 C148.621,126.175 148.986,123.892 148.772,121.951 C148.591,120.303 148.007,118.969 146.975,118.476 C145.92,117.973 144.274,118.209 141.917,119.621" id="Fill-30" fill="#FACFA0"></path>
        <path d="M48.29,127.886 C48.542,124.982 48.987,122.19 49.462,119.62 C47.105,118.209 45.458,117.972 44.404,118.476 C43.373,118.969 42.789,120.303 42.607,121.951 C42.393,123.892 42.758,126.175 43.624,128.178 C43.782,128.547 43.958,128.903 44.149,129.245 C44.87,128.958 45.655,128.8 46.478,128.8 C47.075,128.8 47.652,128.884 48.2,129.039 C48.226,128.653 48.256,128.269 48.29,127.886" id="Fill-31" fill="#FACFA0"></path>
        <path d="M48.071,132.912 C47.624,132.586 47.073,132.392 46.478,132.392 C45.733,132.392 45.058,132.695 44.57,133.182 L44.495,133.254 C44.051,133.731 43.779,134.378 43.779,135.092 C43.779,135.841 44.078,136.515 44.563,137 L44.57,137.006 C45.053,137.49 45.728,137.79 46.478,137.79 C47.177,137.79 47.812,137.529 48.288,137.1 C48.143,135.706 48.077,134.306 48.071,132.912" id="Fill-32" fill="#7ED2EF"></path>
        <path d="M143.309,132.912 C143.303,134.306 143.236,135.706 143.092,137.1 C143.567,137.529 144.202,137.79 144.901,137.79 C145.615,137.79 146.262,137.518 146.739,137.074 L146.81,137 C147.298,136.511 147.6,135.836 147.6,135.092 C147.6,134.345 147.298,133.671 146.81,133.182 C146.322,132.695 145.646,132.392 144.901,132.392 C144.306,132.392 143.755,132.586 143.309,132.912" id="Fill-33" fill="#7ED2EF"></path>
        <path d="M78.952,162.186 C78.797,163.878 78.897,165.397 79.254,166.667 C79.625,167.98 80.273,169.008 81.201,169.64 C82.144,170.284 83.442,170.566 85.106,170.385 C86.949,170.185 89.181,169.43 91.819,168.006 L94.352,169.177 L95.139,169.007 L95.139,170.241 C91.38,172.496 88.16,173.659 85.485,173.949 C82.924,174.228 80.821,173.72 79.18,172.601 C77.523,171.471 76.4,169.76 75.802,167.636 C75.3,165.852 75.172,163.769 75.413,161.503 L78.952,162.186" id="Fill-34" fill="#1C1038"></path>
        <path d="M111.326,162.186 C111.481,163.878 111.381,165.397 111.023,166.667 C110.654,167.98 110.005,169.008 109.077,169.64 C108.133,170.284 106.836,170.566 105.171,170.385 C103.329,170.185 101.097,169.43 98.459,168.006 L95.925,169.177 L95.139,169.007 L95.139,170.241 C98.898,172.496 102.118,173.659 104.792,173.949 C107.354,174.228 109.457,173.72 111.098,172.601 C112.754,171.471 113.877,169.76 114.476,167.636 C114.978,165.852 115.106,163.769 114.865,161.503 L111.326,162.186" id="Fill-35" fill="#1C1038"></path>
        <path d="M81.201,169.64 C82.144,170.284 83.442,170.566 85.106,170.385 C86.367,170.248 87.81,169.851 89.44,169.159 C88.128,168.494 86.936,167.625 85.907,166.595 C85.388,166.077 84.911,165.517 84.48,164.924 C82.518,164.735 80.657,164.495 78.891,164.208 C78.925,165.101 79.045,165.927 79.254,166.667 C79.625,167.98 80.273,169.008 81.201,169.64" id="Fill-36" fill="#FFFFFF"></path>
        <path d="M85.993,170.252 C87.031,170.053 88.179,169.694 89.44,169.159 C88.128,168.494 86.936,167.625 85.907,166.595 C85.388,166.077 84.911,165.517 84.48,164.924 C82.945,164.776 81.471,164.597 80.057,164.388 C80.106,165.152 80.221,165.863 80.403,166.509 C80.773,167.822 81.421,168.849 82.35,169.482 C83.242,170.092 84.453,170.377 85.993,170.252" id="Fill-37" fill="#F58F7E"></path>
        <path d="M105.473,166.595 C104.312,167.756 102.946,168.712 101.434,169.402 C102.822,169.946 104.067,170.265 105.171,170.385 C106.836,170.566 108.133,170.284 109.077,169.64 C110.005,169.008 110.654,167.98 111.023,166.667 C111.218,165.974 111.336,165.208 111.379,164.38 C109.948,164.593 108.455,164.774 106.899,164.924 C106.468,165.517 105.991,166.077 105.473,166.595" id="Fill-38" fill="#F58F7E"></path>
        <path d="M96.938,181.255 C96.938,182.248 96.132,183.053 95.139,183.053 C94.146,183.053 93.34,182.248 93.34,181.255 C93.34,180.261 94.146,179.456 95.139,179.456 C96.132,179.456 96.938,180.261 96.938,181.255 Z M96.938,174.06 C96.938,175.053 96.132,175.858 95.139,175.858 C94.146,175.858 93.34,175.053 93.34,174.06 C93.34,173.066 94.146,172.261 95.139,172.261 C96.132,172.261 96.938,173.066 96.938,174.06 Z M111.098,172.601 C109.457,173.72 107.354,174.228 104.792,173.949 C102.283,173.677 99.294,172.636 95.831,170.647 C95.784,170.647 95.736,170.648 95.69,170.648 C95.299,170.648 94.913,170.632 94.53,170.599 C91.031,172.619 88.015,173.675 85.485,173.949 C82.924,174.228 80.821,173.72 79.18,172.601 C77.523,171.471 76.4,169.76 75.802,167.636 C75.454,166.397 75.285,165.014 75.295,163.527 C74.438,163.341 73.607,163.142 72.799,162.931 C71.741,166.564 70.983,170.26 70.558,173.961 C70.138,177.613 70.044,181.261 70.304,184.852 L119.974,184.852 C120.235,181.261 120.14,177.613 119.72,173.961 C119.304,170.347 118.572,166.74 117.553,163.189 C116.722,163.39 115.865,163.58 114.982,163.756 C114.975,165.157 114.806,166.461 114.476,167.636 C113.877,169.76 112.754,171.471 111.098,172.601 L111.098,172.601 Z" id="Fill-39" fill="#FFFFFF"></path>
        <path d="M115.356,188.444 L111.857,188.444 C111.617,190.399 111.293,192.356 110.895,194.312 C110.388,196.808 109.761,199.294 109.034,201.766 C108.834,202.444 108.269,202.915 107.616,203.029 C98.399,204.614 91.879,204.614 82.662,203.029 C82.009,202.915 81.443,202.444 81.245,201.766 C80.517,199.294 79.89,196.808 79.383,194.312 C78.985,192.356 78.661,190.399 78.421,188.444 L74.921,188.444 C76.262,201.385 81.057,209.839 86.936,213.844 C89.531,215.611 92.34,216.494 95.139,216.494 C97.938,216.494 100.748,215.61 103.341,213.844 C109.221,209.839 114.015,201.385 115.356,188.444" id="Fill-40" fill="#7ED2EF"></path>
        <path d="M50.229,203.777 C47.239,202.76 45.144,200.186 44.227,196.726 C44.205,196.73 44.181,196.734 44.158,196.738 C43.186,196.889 42.227,196.869 41.311,196.697 C41.761,199.042 42.777,200.957 44.254,202.191 C44.913,202.742 45.671,203.163 46.516,203.427 C47.69,203.793 48.965,203.912 50.229,203.777" id="Fill-41" fill="#FFFFFF"></path>
        <path d="M45.549,180.443 C45.988,180.592 46.411,180.775 46.817,180.992 C47.862,179.016 49.186,177.032 50.811,175.09 C53.739,171.588 56.173,169.011 58.184,167.22 C56.333,168.077 53.052,171.169 47.732,177.533 C46.927,178.496 46.2,179.468 45.549,180.443" id="Fill-42" fill="#FFFFFF"></path>
        <path d="M130.225,167.682 C129.045,171.056 130.655,179.687 132.654,188.376 L132.752,188.799 L132.648,189.211 C131.776,192.654 131.842,195.449 132.524,197.636 C133.041,199.29 133.91,200.596 134.985,201.568 C136.06,202.541 137.357,203.195 138.724,203.541 C140.405,203.967 142.176,203.921 143.762,203.427 C144.607,203.163 145.366,202.742 146.024,202.191 C147.501,200.957 148.517,199.042 148.967,196.697 C148.113,196.856 147.22,196.886 146.315,196.765 L146.121,196.738 C143.824,196.379 141.889,195.121 140.618,193.379 C139.349,191.638 138.743,189.415 139.102,187.122 C139.461,184.825 140.719,182.89 142.46,181.62 C143.149,181.117 143.915,180.719 144.729,180.443 C144.078,179.468 143.351,178.496 142.546,177.533 C134.271,167.636 130.934,165.653 130.225,167.682" id="Fill-43" fill="#D1D4E2"></path>
        <path d="M132.752,188.799 L132.648,189.211 C131.776,192.654 131.842,195.449 132.524,197.636 C133.041,199.29 133.91,200.596 134.985,201.568 C136.06,202.541 137.357,203.195 138.724,203.541 C140.405,203.967 142.176,203.921 143.762,203.427 C143.909,203.381 144.053,203.33 144.194,203.275 C143.555,203.296 142.909,203.253 142.271,203.142 C140.88,202.903 139.536,202.351 138.39,201.466 C137.243,200.58 136.275,199.345 135.631,197.736 C134.782,195.608 134.5,192.827 135.102,189.327 L135.174,188.908 L135.044,188.494 C132.377,179.986 130.104,171.506 131.018,168.051 C131.171,167.472 131.55,167.188 132.212,167.277 C131.111,166.729 130.487,166.93 130.225,167.682 C129.045,171.056 130.655,179.687 132.654,188.376 L132.752,188.799" id="Fill-44" fill="#FFFFFF"></path>
        <path d="M78.241,186.824 C78.144,185.84 78.864,184.963 79.848,184.866 C80.831,184.769 81.709,185.489 81.805,186.473 C82.041,188.848 82.409,191.223 82.891,193.597 C83.301,195.613 83.798,197.64 84.371,199.675 C92.045,200.883 98.232,200.883 105.907,199.675 C106.48,197.64 106.976,195.613 107.386,193.597 C107.869,191.223 108.237,188.848 108.473,186.473 C108.569,185.489 109.446,184.769 110.43,184.866 C111.414,184.963 112.134,185.84 112.037,186.824 C111.79,189.318 111.403,191.815 110.895,194.312 C110.388,196.808 109.761,199.294 109.034,201.766 C108.834,202.444 108.269,202.915 107.616,203.029 C98.399,204.614 91.879,204.614 82.662,203.029 C82.009,202.915 81.443,202.444 81.245,201.766 C80.517,199.294 79.89,196.808 79.383,194.312 C78.875,191.815 78.489,189.318 78.241,186.824" id="Fill-45" fill="#1C1038"></path>
        <path d="M82.891,193.597 C83.301,195.613 83.798,197.64 84.371,199.675 C92.045,200.883 98.232,200.883 105.907,199.675 C106.48,197.64 106.976,195.613 107.386,193.597 C107.735,191.881 108.025,190.163 108.247,188.444 L82.031,188.444 C82.253,190.163 82.543,191.881 82.891,193.597" id="Fill-46" fill="#F58F7E"></path>
        <path d="M108.247,188.444 L106.581,188.444 C106.471,189.92 106.314,191.397 106.112,192.877 C105.835,194.916 105.472,196.97 105.033,199.039 C101.576,199.817 98.411,200.325 95.256,200.58 C98.682,200.573 102.113,200.271 105.907,199.675 C106.48,197.64 106.976,195.613 107.386,193.597 C107.735,191.881 108.025,190.163 108.247,188.444" id="Fill-47" fill="#FFFFFF"></path>
        <path d="M54.206,104.158 C38.921,87.448 35.062,71.812 53.887,58.93 C65.368,51.072 84.014,47.709 102.534,48.522 C112.009,48.938 121.423,50.446 129.796,53.003 C119.792,49.465 107.753,47.696 95.69,47.696 C77.153,47.696 58.672,51.874 47.546,60.227 C35.931,68.949 32.579,82.504 46.429,100.949 L47.81,102.789 L45.685,103.678 C43.016,104.797 40.934,106.375 39.603,108.172 C38.558,109.584 37.985,111.124 37.977,112.657 C37.969,114.178 38.516,115.736 39.708,117.208 L40.198,117.77 C40.83,116.666 41.712,115.782 42.861,115.234 C42.94,115.197 43.021,115.16 43.103,115.126 C38.265,110.655 46.971,104.935 54.206,104.158" id="Fill-48" fill="#FFFFFF"></path>
        <g id="Group-52" transform="translate(76.776595, 0.532140)">
            <path d="M16.2664051,1.99786039 C6.92340511,3.45986039 0.535405111,12.2198604 1.99740511,21.5598604 C3.45940511,30.9018604 12.2194051,37.2908604 21.5604051,35.8288604 C30.9014051,34.3668604 37.2904051,25.6078604 35.8284051,16.2658604 C34.3664051,6.92486039 25.6074051,0.535860388 16.2664051,1.99786039" id="Fill-49" fill="#7ED2EF"></path>
            <path d="M3.63540511,7.77186039 C6.48740511,3.86086039 10.8324051,1.03786039 15.9924051,0.229860388 C21.1474051,-0.577139612 26.1444051,0.783860388 30.0544051,3.63586039 C33.9654051,6.48786039 36.7884051,10.8328604 37.5964051,15.9928604 L37.6244051,16.1798604 C38.3694051,21.2688604 37.0084051,26.1918604 34.1904051,30.0548604 C31.3384051,33.9658604 26.9934051,36.7898604 21.8344051,37.5968604 L21.6464051,37.6248604 C16.5584051,38.3708604 11.6344051,37.0088604 7.77140511,34.1908604 C3.86040511,31.3388604 1.03640511,26.9948604 0.229405111,21.8348604 L0.201405111,21.6478604 C-0.543594889,16.5588604 0.817405111,11.6348604 3.63540511,7.77186039 Z M16.5394051,3.76586039 C12.3574051,4.42086039 8.83640511,6.70886039 6.52540511,9.87686039 C4.21340511,13.0468604 3.11140511,17.1018604 3.76640511,21.2868604 L3.76840511,21.3038604 C4.42640511,25.4778604 6.71240511,28.9928604 9.87640511,31.3008604 C13.0464051,33.6128604 17.1004051,34.7158604 21.2864051,34.0608604 L21.3184051,34.0558604 C25.4864051,33.3948604 28.9954051,31.1108604 31.3004051,27.9498604 C33.6124051,24.7798604 34.7154051,20.7258604 34.0604051,16.5408604 L34.0574051,16.5238604 C33.4004051,12.3498604 31.1144051,8.83386039 27.9494051,6.52586039 C24.7794051,4.21386039 20.7254051,3.11086039 16.5394051,3.76586039 L16.5394051,3.76586039 Z" id="Fill-51" fill="#1C1038"></path>
        </g>
        <path d="M109.001,15.431 C110.344,24.007 104.479,32.049 95.902,33.391 C92.947,33.854 90.056,33.461 87.48,32.396 C90.513,34.32 94.233,35.192 98.063,34.593 L98.095,34.588 C102.263,33.927 105.772,31.643 108.077,28.482 C110.389,25.312 111.492,21.258 110.837,17.073 L110.834,17.056 C110.216,13.128 108.155,9.783 105.276,7.479 C107.186,9.646 108.522,12.366 109.001,15.431" id="Fill-53" fill="#FFFFFF"></path>
        <polygon id="Fill-54" fill="#1C1038" points="93.893 45.715 97.486 45.715 97.486 36.901 93.893 36.901"></polygon>
        <path d="M119.825,101.973 C115.562,101.973 111.703,103.702 108.91,106.495 C106.117,109.287 104.389,113.146 104.389,117.408 C104.389,121.671 106.117,125.53 108.91,128.322 C111.703,131.115 115.562,132.843 119.825,132.843 C124.087,132.843 127.945,131.115 130.738,128.322 C133.531,125.53 135.259,121.671 135.259,117.408 C135.259,113.146 133.531,109.287 130.738,106.495 C127.945,103.702 124.087,101.973 119.825,101.973" id="Fill-55" fill="#7ED2EF"></path>
        <path d="M131.475,117.943 C132.161,118.656 132.139,119.791 131.426,120.476 C130.713,121.163 129.579,121.14 128.893,120.428 C127.726,119.219 126.318,118.24 124.746,117.572 C123.241,116.933 121.579,116.579 119.824,116.579 C118.07,116.579 116.406,116.933 114.903,117.572 C113.331,118.24 111.922,119.219 110.755,120.428 C110.07,121.14 108.935,121.163 108.222,120.476 C107.51,119.791 107.488,118.656 108.173,117.943 C109.674,116.388 111.483,115.132 113.5,114.275 C115.449,113.446 117.587,112.987 119.824,112.987 C122.06,112.987 124.199,113.446 126.149,114.275 C128.165,115.131 129.974,116.388 131.475,117.943" id="Fill-56" fill="#1C1038"></path>
        <path d="M133.111,113.828 C133.675,113.016 133.476,111.9 132.664,111.335 C131.852,110.77 130.736,110.971 130.171,111.782 C129.639,112.544 128.991,113.227 128.248,113.803 C127.52,114.368 126.705,114.828 125.826,115.157 C125.711,115.199 125.605,115.252 125.505,115.314 L128.539,117.854 C129.216,117.501 129.853,117.09 130.445,116.632 C131.472,115.835 132.371,114.886 133.111,113.828" id="Fill-57" fill="#1C1038"></path>
        <path d="M127.729,110.376 C128.066,109.446 127.586,108.419 126.657,108.081 C125.728,107.744 124.7,108.224 124.363,109.154 C124.043,110.026 123.593,110.853 123.024,111.6 C122.464,112.334 121.795,112.988 121.03,113.531 C120.931,113.601 120.841,113.68 120.761,113.765 L124.344,115.442 C124.908,114.926 125.419,114.365 125.874,113.77 C126.661,112.736 127.286,111.589 127.729,110.376" id="Fill-58" fill="#1C1038"></path>
        <path d="M71.555,101.973 C75.817,101.973 79.676,103.702 82.469,106.495 C85.262,109.287 86.99,113.146 86.99,117.408 C86.99,121.671 85.262,125.53 82.469,128.322 C79.676,131.115 75.817,132.843 71.555,132.843 C67.293,132.843 63.434,131.115 60.641,128.322 C57.848,125.53 56.12,121.671 56.12,117.408 C56.12,113.146 57.848,109.287 60.641,106.495 C63.434,103.702 67.293,101.973 71.555,101.973" id="Fill-59" fill="#7ED2EF"></path>
        <path d="M59.904,117.943 C59.218,118.656 59.241,119.791 59.953,120.476 C60.666,121.163 61.8,121.14 62.486,120.428 C63.653,119.219 65.062,118.24 66.634,117.572 C68.138,116.933 69.8,116.579 71.555,116.579 C73.309,116.579 74.973,116.933 76.476,117.572 C78.048,118.24 79.457,119.219 80.623,120.428 C81.31,121.14 82.444,121.163 83.157,120.476 C83.869,119.791 83.892,118.656 83.206,117.943 C81.705,116.388 79.897,115.132 77.879,114.275 C75.93,113.446 73.792,112.987 71.555,112.987 C69.319,112.987 67.181,113.446 65.23,114.275 C63.214,115.131 61.405,116.388 59.904,117.943" id="Fill-60" fill="#1C1038"></path>
        <path d="M58.268,113.828 C57.704,113.016 57.904,111.9 58.715,111.335 C59.527,110.77 60.643,110.971 61.208,111.782 C61.741,112.544 62.389,113.227 63.13,113.803 C63.859,114.368 64.674,114.828 65.554,115.157 C65.668,115.199 65.774,115.252 65.874,115.314 L62.84,117.854 C62.163,117.501 61.526,117.09 60.934,116.632 C59.907,115.835 59.008,114.886 58.268,113.828" id="Fill-61" fill="#1C1038"></path>
        <path d="M63.649,110.376 C63.312,109.446 63.792,108.419 64.722,108.081 C65.652,107.744 66.679,108.224 67.016,109.154 C67.335,110.026 67.786,110.853 68.355,111.6 C68.915,112.334 69.584,112.988 70.349,113.531 C70.449,113.601 70.538,113.68 70.619,113.765 L67.035,115.442 C66.471,114.926 65.96,114.365 65.506,113.77 C64.718,112.736 64.093,111.589 63.649,110.376" id="Fill-62" fill="#1C1038"></path>
        <polygon id="Fill-63" fill="#1C1038" points="92.098 119.205 99.805 119.205 99.805 115.612 92.098 115.612"></polygon>
        <path d="M648.854,166.246 C645.516,166.246 642.867,168.664 642.867,172.003 C642.867,175.342 645.516,177.76 648.854,177.76 C660.367,177.76 667.621,169.7 672.688,158.418 L694.1,110.062 C694.33,109.487 694.561,108.68 694.561,107.645 C694.561,104.191 691.797,101.428 688.344,101.428 C684.891,101.428 683.162,103.845 682.588,105.342 L669.924,137.348 L657.26,105.342 C656.684,103.845 654.955,101.428 651.502,101.428 C648.049,101.428 645.285,104.191 645.285,107.645 C645.285,108.68 645.516,109.487 645.746,110.062 L663.475,150.933 C659.676,160.375 656.223,166.246 648.854,166.246 Z M624.586,100.737 C616.873,100.737 612.037,104.305 609.85,107.645 C609.85,104.191 607.086,101.428 603.633,101.428 C600.178,101.428 597.414,104.191 597.414,107.645 L597.414,149.553 C597.414,153.006 600.063,155.539 603.633,155.539 C607.201,155.539 609.85,153.006 609.85,149.553 L609.85,123.878 C609.85,117.085 612.729,112.019 621.363,112.019 C628.846,112.019 631.494,116.51 631.494,123.072 L631.494,149.553 C631.494,153.006 634.027,155.539 637.711,155.539 C641.164,155.539 643.928,153.006 643.928,149.553 L643.928,120.769 C643.928,110.753 640.244,100.737 624.586,100.737 Z M570.613,100.737 C562.9,100.737 558.064,104.305 555.877,107.645 C555.877,104.191 553.115,101.428 549.66,101.428 C546.207,101.428 543.443,104.191 543.443,107.645 L543.443,149.553 C543.443,153.006 546.092,155.539 549.66,155.539 C553.23,155.539 555.877,153.006 555.877,149.553 L555.877,123.878 C555.877,117.085 558.756,112.019 567.391,112.019 C574.873,112.019 577.521,116.51 577.521,123.072 L577.521,149.553 C577.521,153.006 580.055,155.539 583.738,155.539 C587.193,155.539 589.957,153.006 589.957,149.553 L589.957,120.769 C589.957,110.753 586.271,100.737 570.613,100.737 Z M511.922,145.753 C505.475,145.753 502.367,143.104 502.367,138.73 C502.367,134.585 505.129,132.168 510.195,132.168 L523.666,132.168 L523.666,135.39 C523.666,141.839 518.025,145.753 511.922,145.753 Z M513.189,111.789 C519.867,111.789 523.666,115.243 523.666,120.424 L523.666,122.496 L508.584,122.496 C498.566,122.496 489.932,128.022 489.932,138.73 C489.932,149.092 497.416,156.115 508.699,156.115 C515.607,156.115 520.672,154.388 523.781,149.437 C523.781,152.776 526.545,155.539 529.883,155.539 C533.221,155.539 535.984,152.776 535.984,149.437 L535.984,119.964 C535.984,107.76 527.465,100.737 513.189,100.737 C503.287,100.737 497.531,104.536 494.307,108.105 C493.271,109.256 492.811,110.638 492.811,111.905 C492.811,114.898 495.229,117.315 498.221,117.315 C499.604,117.315 500.523,116.97 501.676,116.164 C504.555,114.092 508.123,111.789 513.189,111.789 Z M477.408,76.214 C473.838,76.214 470.846,79.207 470.846,82.776 L470.846,128.368 L436.766,78.977 C435.615,77.25 433.773,76.214 431.471,76.214 C427.9,76.214 424.908,79.207 424.908,82.776 L424.908,148.976 C424.908,152.546 427.9,155.539 431.471,155.539 C435.039,155.539 438.033,152.546 438.033,148.976 L438.033,103.615 L471.996,152.661 C473.148,154.388 475.221,155.539 477.408,155.539 C480.977,155.539 483.971,152.546 483.971,148.976 L483.971,82.776 C483.971,79.207 480.977,76.214 477.408,76.214 Z M396.609,102.348 L393.963,102.348 C391.084,102.348 388.781,104.651 388.781,107.529 C388.781,110.408 391.084,112.71 393.963,112.71 L396.609,112.71 L396.609,139.882 C396.609,148.976 402.941,155.539 413.189,155.539 C416.182,155.539 418.6,153.121 418.6,150.128 C418.6,147.135 416.182,144.717 413.189,144.717 C411.115,144.717 408.814,143.22 408.814,140.572 L408.814,112.71 L413.994,112.71 C416.873,112.71 419.176,110.408 419.176,107.529 C419.176,104.651 416.873,102.348 413.994,102.348 L408.814,102.348 L408.814,92.677 C408.814,89.339 406.051,86.575 402.711,86.575 C399.373,86.575 396.609,89.339 396.609,92.677 L396.609,102.348 Z M365.779,100.737 C358.066,100.737 353.23,104.305 351.043,107.645 C351.043,104.191 348.279,101.428 344.826,101.428 C341.371,101.428 338.609,104.191 338.609,107.645 L338.609,149.553 C338.609,153.006 341.258,155.539 344.826,155.539 C348.395,155.539 351.043,153.006 351.043,149.553 L351.043,123.878 C351.043,117.085 353.922,112.019 362.557,112.019 C370.039,112.019 372.688,116.51 372.688,123.072 L372.688,149.553 C372.688,153.006 375.221,155.539 378.904,155.539 C382.357,155.539 385.121,153.006 385.121,149.553 L385.121,120.769 C385.121,110.753 381.438,100.737 365.779,100.737 Z M324.357,95.21 C329.193,95.21 331.841,92.447 331.841,87.957 C331.841,82.661 329.193,80.358 324.357,80.358 C319.637,80.358 316.988,82.661 316.988,87.957 C316.988,92.447 319.637,95.21 324.357,95.21 Z M330.574,107.645 C330.574,104.191 327.811,101.428 324.357,101.428 C320.902,101.428 318.14,104.191 318.14,107.645 L318.14,149.322 C318.14,152.776 320.902,155.539 324.357,155.539 C327.811,155.539 330.574,152.776 330.574,149.322 L330.574,107.645 Z M296.175,107.645 C296.175,104.191 293.412,101.428 289.958,101.428 C286.503,101.428 283.74,104.191 283.74,107.645 L283.74,149.322 C283.74,152.776 286.503,155.539 289.958,155.539 C293.412,155.539 296.175,152.776 296.175,149.322 L296.175,125.375 C296.175,117.661 300.665,112.595 308.609,112.595 C311.833,112.595 314.48,109.947 314.48,106.723 C314.48,103.5 311.833,100.852 308.609,100.852 C303.773,100.852 298.362,103.73 296.175,108.22 L296.175,107.645 Z M252.449,89.108 C259.472,89.108 263.847,93.138 263.847,100.737 C263.847,108.22 259.587,112.48 252.449,112.48 L238.173,112.48 L238.173,89.108 L252.449,89.108 Z M253.485,124.454 C267.186,124.454 277.663,116.625 277.663,100.737 C277.663,84.618 266.956,77.135 253.485,77.135 L231.495,77.135 C227.811,77.135 224.818,80.128 224.818,83.812 L224.818,148.861 C224.818,152.546 227.811,155.539 231.495,155.539 C235.179,155.539 238.173,152.546 238.173,148.861 L238.173,124.454 L253.485,124.454 L253.485,124.454 Z" id="Fill-64" fill="#1C1038"></path>
        <path d="M93.893,38.275 C90.463,37.95 87.247,36.692 84.548,34.723 C80.637,31.871 77.813,27.527 77.006,22.367 L76.978,22.18 C76.955,22.017 76.933,21.854 76.913,21.692 C58.933,25.404 42.862,34.34 30.358,46.844 C13.639,63.563 3.297,86.662 3.297,112.176 C3.297,137.689 13.639,160.787 30.358,177.507 C32.287,179.435 34.3,181.279 36.393,183.032 C37.65,181.523 39.437,180.444 41.526,180.108 C42.491,178.47 43.64,176.836 44.981,175.231 C56.269,161.732 61.499,160.961 63.435,166.503 C64.879,170.636 63.286,179.687 61.213,188.76 C62.066,192.361 62.032,195.435 61.38,197.988 C65.548,199.656 69.866,201.028 74.307,202.081 C72.867,198.172 71.826,193.625 71.315,188.444 L68.664,188.444 C67.69,188.444 66.898,187.67 66.869,186.703 C66.43,182.361 66.488,177.951 66.993,173.553 C67.44,169.658 68.243,165.758 69.366,161.913 C56.262,157.531 50.762,149.547 48.887,140.9 C48.144,141.211 47.33,141.382 46.478,141.382 C44.754,141.382 43.187,140.681 42.047,139.55 L42.03,139.532 C40.891,138.391 40.187,136.82 40.187,135.092 C40.187,133.761 40.603,132.525 41.314,131.506 C40.942,130.901 40.613,130.261 40.326,129.596 C39.228,127.052 38.766,124.117 39.04,121.582 C38.222,120.905 37.521,120.197 36.929,119.467 C35.187,117.316 34.386,114.973 34.399,112.643 C34.411,110.325 35.231,108.059 36.727,106.039 C38.065,104.232 39.952,102.615 42.287,101.339 C28.402,81.709 32.526,67.032 45.4,57.365 C56.807,48.8 75.267,44.384 93.893,44.117 L93.893,38.275" id="Fill-65" fill="#F58F7E"></path>
        <path d="M110.967,30.587 C108.115,34.498 103.77,37.322 98.611,38.129 L98.423,38.157 C98.11,38.203 97.798,38.241 97.486,38.271 L97.486,44.117 C116.112,44.384 134.573,48.8 145.979,57.365 C158.854,67.032 162.978,81.709 149.093,101.338 C151.427,102.614 153.314,104.231 154.653,106.039 C156.148,108.059 156.967,110.325 156.98,112.643 C156.993,114.973 156.192,117.315 154.45,119.467 C153.859,120.197 153.157,120.904 152.339,121.582 C152.613,124.116 152.152,127.052 151.054,129.596 C150.767,130.26 150.438,130.898 150.068,131.502 C150.777,132.519 151.193,133.758 151.193,135.092 C151.193,136.828 150.488,138.401 149.35,139.539 L149.233,139.646 C148.102,140.721 146.576,141.382 144.901,141.382 C144.049,141.382 143.235,141.211 142.492,140.901 C140.57,149.764 134.837,157.933 121.006,162.238 C122.08,165.977 122.85,169.767 123.285,173.553 C123.795,177.994 123.849,182.448 123.396,186.831 C123.302,187.754 122.522,188.441 121.614,188.44 L121.614,188.444 L118.962,188.444 C118.44,193.748 117.361,198.386 115.868,202.357 C120.379,201.352 124.767,200.017 129.003,198.38 C128.252,195.752 128.168,192.548 129.065,188.76 C126.992,179.687 125.398,170.636 126.843,166.503 C128.779,160.961 134.009,161.731 145.297,175.231 C146.639,176.836 147.787,178.47 148.752,180.108 C151.034,180.474 152.956,181.729 154.22,183.462 C154.251,183.505 154.282,183.548 154.313,183.592 C156.647,181.673 158.887,179.641 161.022,177.507 C177.741,160.787 188.083,137.689 188.083,112.176 C188.083,86.662 177.741,63.563 161.022,46.844 C148.52,34.341 132.45,25.405 114.471,21.693 C114.082,24.953 112.849,28.007 110.967,30.587" id="Fill-66" fill="#F58F7E"></path>
    </g>
</svg>